<?xml version="1.0" encoding="UTF-8"?>
<svg version="1.1" xmlns="http://www.w3.org/2000/svg" width="1080" height="1080">
<path d="M0 0 C356.4 0 712.8 0 1080 0 C1080 356.4 1080 712.8 1080 1080 C723.6 1080 367.2 1080 0 1080 C0 723.6 0 367.2 0 0 Z " fill="#FEFEFE" transform="translate(0,0)"/>
<path d="M0 0 C4.3814786 2.21409473 6.89222644 4.84006776 9.08203125 9.30078125 C11.26719471 17.61309597 11.47746051 26.00580168 11.45703125 34.55078125 C11.45781677 35.26476074 11.45860229 35.97874023 11.45941162 36.71435547 C11.43528612 55.80532343 10.00744782 74.85575981 8.68115234 93.89160156 C5.51577424 139.48418496 4.25833502 185.15233708 2.89453173 230.82646263 C1.82473189 266.63443379 0.56484636 302.27936335 -2.77050781 337.9609375 C-5.32164463 365.28028947 -6.83518633 392.51971748 -7.6459198 419.94200134 C-7.83239333 426.07436134 -8.06790214 432.2013557 -8.390625 438.328125 C-8.44292267 439.38296082 -8.44292267 439.38296082 -8.49627686 440.45910645 C-9.16051625 452.23513733 -11.02951209 462.94121359 -20.00390625 471.2265625 C-26.06167016 475.92585776 -32.29482495 477.94025973 -39.59765625 479.8671875 C-43.74474199 481.65775275 -44.60016342 483.47867482 -46.91796875 487.30078125 C-51.41185557 492.42067493 -56.62279886 496.6454618 -62.04296875 500.73828125 C-62.78724121 501.3010376 -63.53151367 501.86379395 -64.29833984 502.44360352 C-85.44962922 518.25148091 -107.59502586 524.75332258 -133.24291992 529.28540039 C-146.30051005 531.64058424 -159.0948432 534.91724538 -171.91796875 538.30078125 C-173.14290039 538.61716553 -173.14290039 538.61716553 -174.39257812 538.93994141 C-209.47179685 548.0059706 -243.03484855 560.76020103 -275.2071228 577.37030029 C-279.2046921 579.43310411 -283.22296922 581.44846417 -287.25624084 583.44050598 C-293.40985579 586.48323351 -299.43819338 589.60582239 -305.23046875 593.30078125 C-311.51899334 597.30078125 -311.51899334 597.30078125 -314.91796875 597.30078125 C-314.91796875 596.31078125 -314.91796875 595.32078125 -314.91796875 594.30078125 C-312.62112861 592.5094956 -310.3790379 590.96512338 -307.91796875 589.42578125 C-307.17047363 588.95035889 -306.42297852 588.47493652 -305.65283203 587.98510742 C-296.23474757 582.10094727 -286.42050912 576.92410042 -276.60888672 571.734375 C-274.34553316 570.52856733 -272.09813339 569.30139403 -269.859375 568.05078125 C-251.16946463 557.65841447 -231.10139941 550.21630066 -210.91796875 543.30078125 C-209.16625366 542.69206177 -209.16625366 542.69206177 -207.37915039 542.07104492 C-198.46309689 539.02294592 -189.49583998 536.5150999 -180.35546875 534.23828125 C-177.74923844 533.58372185 -175.14397195 532.92541933 -172.5390625 532.265625 C-171.26168213 531.94263428 -169.98430176 531.61964355 -168.66821289 531.28686523 C-165.10946972 530.35113425 -161.59149509 529.32394105 -158.06640625 528.26953125 C-149.11076025 525.67712403 -139.97683224 524.10470612 -130.81225586 522.44897461 C-103.92810901 517.56120883 -81.49579775 508.77469891 -59.98046875 491.72265625 C-56.34325552 488.84628865 -52.63757927 486.06924771 -48.91796875 483.30078125 C-56.24312173 484.69237477 -63.56444943 486.10313401 -70.88427734 487.52246094 C-73.56844644 488.04180932 -76.25366465 488.55514546 -78.93994141 489.06347656 C-148.71124421 502.28087848 -210.71589251 526.94088989 -272.359375 562.1484375 C-276.73425026 564.64262449 -281.14229802 567.06642173 -285.5715332 569.46240234 C-297.845361 576.10915963 -309.62116816 583.48310742 -321.44921875 590.88476562 C-334.91949959 599.27212018 -349.09552204 608.09059992 -364.40234375 612.640625 C-365.5625 613.18847656 -366.72265625 613.73632812 -367.91796875 614.30078125 C-368.57796875 616.61078125 -369.23796875 618.92078125 -369.91796875 621.30078125 C-363.97796875 620.97078125 -358.03796875 620.64078125 -351.91796875 620.30078125 C-352.24796875 621.62078125 -352.57796875 622.94078125 -352.91796875 624.30078125 C-358.61451684 627.69446947 -363.37314738 627.56974651 -369.91796875 627.30078125 C-369.91796875 631.26078125 -369.91796875 635.22078125 -369.91796875 639.30078125 C-368.89703125 638.60855469 -367.87609375 637.91632812 -366.82421875 637.203125 C-354.04855506 628.58826711 -341.03213295 620.38892178 -327.91796875 612.30078125 C-326.90911621 611.67816406 -325.90026367 611.05554688 -324.86083984 610.4140625 C-314.9973274 604.33832989 -305.12463273 598.3050758 -294.98242188 592.70385742 C-290.19167995 590.04974235 -285.48608767 587.26874011 -280.7878418 584.4543457 C-251.09195418 566.69744276 -220.93882827 556.88254537 -187.10546875 549.98828125 C-185.23737549 549.60603394 -185.23737549 549.60603394 -183.33154297 549.21606445 C-171.45889715 546.86795453 -159.80345362 546.18043091 -147.74389648 545.70654297 C-110.61253294 544.21948228 -68.29353539 541.53180147 -41.30078125 512.484375 C-36.34751268 506.71058018 -32.01514271 500.6504226 -27.8671875 494.28125 C-25.83002978 491.16631745 -23.7458893 488.09571468 -21.60546875 485.05078125 C-20.65220703 483.68179688 -20.65220703 483.68179688 -19.6796875 482.28515625 C-19.09832031 481.6303125 -18.51695312 480.97546875 -17.91796875 480.30078125 C-16.92796875 480.30078125 -15.93796875 480.30078125 -14.91796875 480.30078125 C-16.22347915 483.00299717 -17.64431312 485.5390625 -19.2734375 488.05859375 C-19.72734863 488.76169678 -20.18125977 489.4647998 -20.64892578 490.18920898 C-21.12958496 490.92727783 -21.61024414 491.66534668 -22.10546875 492.42578125 C-22.60159668 493.18769775 -23.09772461 493.94961426 -23.60888672 494.73461914 C-25.04080402 496.92629602 -26.47803237 499.11436673 -27.91796875 501.30078125 C-28.56636719 502.28691406 -29.21476563 503.27304687 -29.8828125 504.2890625 C-44.99500989 526.58399841 -67.68654471 539.79812257 -93.91796875 545.30078125 C-108.65073077 547.91027415 -123.27880022 549.33406956 -138.23046875 549.80078125 C-160.56375777 550.58593594 -181.79481876 553.23735581 -203.54296875 558.42578125 C-204.36125153 558.61986572 -205.1795343 558.8139502 -206.02261353 559.01391602 C-232.65881604 565.38062596 -257.26501737 574.97765433 -280.484375 589.56640625 C-284.71058719 592.20721177 -289.03804701 594.61404862 -293.41796875 596.98828125 C-305.54055612 603.60637605 -317.20578896 610.98951916 -328.91796875 618.30078125 C-330.24393066 619.12545898 -330.24393066 619.12545898 -331.59667969 619.96679688 C-344.21174282 627.81816475 -356.59235432 636.00352031 -368.91796875 644.30078125 C-368.58796875 645.29078125 -368.25796875 646.28078125 -367.91796875 647.30078125 C-367.03238281 646.56214844 -366.14679688 645.82351563 -365.234375 645.0625 C-325.68942189 612.50243326 -277.35358942 593.30144071 -227.64624023 582.78271484 C-218.17173459 580.71626166 -208.94396114 578.03896027 -199.66796875 575.23828125 C-179.03988486 569.04065548 -158.44523613 564.96984808 -137.19702148 561.60498047 C-103.39370253 556.37385381 -103.39370253 556.37385381 -70.23046875 548.19921875 C-66.66215185 547.23139695 -63.59790582 547.15057974 -59.91796875 547.30078125 C-59.91796875 547.96078125 -59.91796875 548.62078125 -59.91796875 549.30078125 C-67.33555029 552.90588539 -74.90124075 555.27285455 -82.85546875 557.36328125 C-83.72824463 557.59611816 -84.60102051 557.82895508 -85.50024414 558.06884766 C-105.27376603 563.12120571 -125.64395131 566.04801049 -145.73046875 569.55078125 C-148.38091599 570.01399938 -151.03127918 570.47769753 -153.68164062 570.94140625 C-160.09346175 572.06285242 -166.5055881 573.18253908 -172.91796875 574.30078125 C-172.25196152 574.24215912 -171.58595428 574.18353699 -170.89976501 574.12313843 C-158.10965385 573.01125389 -145.39645121 572.08693902 -132.5585022 571.95227051 C-111.68774846 571.68622533 -90.49464129 570.08324917 -70.91796875 562.30078125 C-70.21881348 562.02782227 -69.5196582 561.75486328 -68.79931641 561.47363281 C-56.60488236 556.58722023 -45.27505744 550.1720688 -38.79296875 538.23828125 C-35.39855133 530.28025818 -34.60901643 521.84794998 -33.91796875 513.30078125 C-32.26796875 513.30078125 -30.61796875 513.30078125 -28.91796875 513.30078125 C-24.93673126 521.26325623 -26.00133196 534.21028307 -28.54296875 542.42578125 C-35.94503184 562.3644371 -51.32541957 573.68051817 -69.859375 582.73828125 C-92.52464141 592.39591807 -118.54333174 593.01073172 -142.75482178 595.11193848 C-150.48090621 595.7864258 -158.20241909 596.51496693 -165.91796875 597.30078125 C-166.81032227 597.39149902 -167.70267578 597.4822168 -168.62207031 597.57568359 C-215.66708685 602.48856181 -261.22801388 612.36492244 -303.91796875 633.30078125 C-304.69430664 633.6767041 -305.47064453 634.05262695 -306.27050781 634.43994141 C-322.95567325 642.58877053 -339.0403615 652.93829251 -352.91796875 665.30078125 C-353.89765625 666.16058594 -354.87734375 667.02039063 -355.88671875 667.90625 C-365.40355003 676.36782998 -373.70804685 685.71115921 -381.703125 695.6171875 C-383.87429702 698.24786682 -386.12038232 700.78020549 -388.41796875 703.30078125 C-391.55160869 706.73961047 -394.55021238 710.24946593 -397.48046875 713.86328125 C-398.22941406 714.77980469 -398.97835938 715.69632813 -399.75 716.640625 C-401.11201197 718.3118505 -402.46499865 719.9905146 -403.8046875 721.6796875 C-409.22048271 728.20816181 -415.67575243 732.96160631 -422.91796875 737.30078125 C-423.57796875 737.30078125 -424.23796875 737.30078125 -424.91796875 737.30078125 C-425.99469566 715.40733418 -410.3598138 694.5993375 -397.24194336 678.20629883 C-395.20066233 675.26840497 -395.08797274 672.02086588 -394.73046875 668.55078125 C-394.60768555 667.50470703 -394.60768555 667.50470703 -394.48242188 666.4375 C-394.28319742 664.72651349 -394.09906946 663.01378088 -393.91796875 661.30078125 C-395.23796875 660.97078125 -396.55796875 660.64078125 -397.91796875 660.30078125 C-397.09296875 659.55828125 -396.26796875 658.81578125 -395.41796875 658.05078125 C-392.46952022 655.4269074 -392.46952022 655.4269074 -392.91796875 651.30078125 C-394.08972656 651.09775391 -394.08972656 651.09775391 -395.28515625 650.890625 C-418.27815277 646.61464458 -440.69365575 639.47207646 -462.91796875 632.30078125 C-463.81644531 632.01267578 -464.71492188 631.72457031 -465.640625 631.42773438 C-477.40453957 627.61518203 -488.74793312 622.90695945 -500.1177063 618.06967163 C-512.00925636 613.01539715 -524.01318732 608.43372439 -536.234375 604.22802734 C-538.65656231 603.39110345 -541.06922345 602.53187525 -543.48046875 601.6640625 C-564.82388934 594.09853427 -586.93412615 589.80528583 -609.15783691 585.79510498 C-624.2890813 583.06089739 -639.18412998 579.85438619 -654.08154297 576.02636719 C-656.59716945 575.3828449 -659.11625713 574.76047942 -661.640625 574.15234375 C-669.67418284 572.21207124 -677.60859652 570.00771958 -685.515625 567.609375 C-688.36471126 566.74816964 -691.21907251 565.95218754 -694.1015625 565.2109375 C-706.48997698 561.91284798 -718.22562294 557.08748598 -730.04296875 552.17578125 C-730.9094101 551.82035248 -731.77585144 551.46492371 -732.66854858 551.09872437 C-735.15666519 550.07416415 -737.63589175 549.03066148 -740.11328125 547.98046875 C-741.2494413 547.51497871 -741.2494413 547.51497871 -742.40855408 547.04008484 C-747.58012664 544.80715635 -747.58012664 544.80715635 -749.40576172 542.07080078 C-749.57479004 541.48669434 -749.74381836 540.90258789 -749.91796875 540.30078125 C-747.91796875 538.30078125 -747.91796875 538.30078125 -744.55297852 538.28222656 C-743.07083089 538.38493686 -741.58962075 538.50169179 -740.109375 538.62890625 C-739.29685776 538.69299683 -738.48434052 538.7570874 -737.64720154 538.82312012 C-734.92311555 539.04814796 -732.20195698 539.29631023 -729.48046875 539.55078125 C-728.53792236 539.63702759 -727.59537598 539.72327393 -726.62426758 539.81213379 C-694.3406562 542.8550284 -662.62360942 550.10245113 -631.10766602 557.53759766 C-621.40540792 559.81386101 -611.66998924 561.70219261 -601.85546875 563.42578125 C-577.62602411 567.702837 -554.31193108 573.64663331 -530.91796875 581.30078125 C-530.03012695 581.58501953 -529.14228516 581.86925781 -528.22753906 582.16210938 C-518.44639176 585.30309752 -509.01720176 589.08028702 -499.60009766 593.17236328 C-471.84771639 605.23099193 -443.25681856 614.16901329 -414.16357422 622.3828125 C-409.69999461 623.64526619 -405.24489972 624.93543455 -400.79296875 626.23828125 C-398.93285156 626.77775391 -398.93285156 626.77775391 -397.03515625 627.328125 C-394.25947667 628.19422051 -391.59666735 629.17370618 -388.91796875 630.30078125 C-387.14036999 625.33157441 -387.14036999 625.33157441 -387.91796875 620.30078125 C-386.92796875 620.30078125 -385.93796875 620.30078125 -384.91796875 620.30078125 C-384.91796875 618.98078125 -384.91796875 617.66078125 -384.91796875 616.30078125 C-386.89796875 616.30078125 -388.87796875 616.30078125 -390.91796875 616.30078125 C-389.96231676 612.05343907 -388.45577934 609.65763914 -385.48046875 606.61328125 C-381.25454173 602.07921372 -380.07222411 597.28092329 -378.91796875 591.30078125 C-379.86671875 590.99140625 -380.81546875 590.68203125 -381.79296875 590.36328125 C-384.91796875 589.30078125 -384.91796875 589.30078125 -386.91796875 588.30078125 C-386.91796875 587.31078125 -386.91796875 586.32078125 -386.91796875 585.30078125 C-383.61796875 585.63078125 -380.31796875 585.96078125 -376.91796875 586.30078125 C-376.77359375 585.04265625 -376.62921875 583.78453125 -376.48046875 582.48828125 C-376.18048189 579.87411002 -375.75983578 577.82638233 -374.91796875 575.30078125 C-376.18640625 575.20796875 -376.18640625 575.20796875 -377.48046875 575.11328125 C-381.93556098 574.06025945 -384.32387792 572.1041721 -387.91796875 569.30078125 C-387.58796875 568.64078125 -387.25796875 567.98078125 -386.91796875 567.30078125 C-379.98796875 568.78578125 -379.98796875 568.78578125 -372.91796875 570.30078125 C-372.79421875 568.93953125 -372.67046875 567.57828125 -372.54296875 566.17578125 C-372.12358907 562.32842854 -371.31362328 558.92948303 -369.91796875 555.30078125 C-368.26796875 555.30078125 -366.61796875 555.30078125 -364.91796875 555.30078125 C-365.24796875 559.92078125 -365.57796875 564.54078125 -365.91796875 569.30078125 C-363.70442708 568.25911458 -361.49088542 567.21744792 -359.27734375 566.17578125 C-356.91796875 565.30078125 -356.91796875 565.30078125 -352.91796875 565.30078125 C-353.29042719 567.869649 -353.59643112 569.02206522 -355.58984375 570.75 C-362.53799683 574.89015888 -362.53799683 574.89015888 -366.91796875 575.30078125 C-366.90056641 576.33138672 -366.90056641 576.33138672 -366.8828125 577.3828125 C-366.87378906 578.28386719 -366.86476563 579.18492187 -366.85546875 580.11328125 C-366.84386719 581.00660156 -366.83226562 581.89992188 -366.8203125 582.8203125 C-366.91796875 585.30078125 -366.91796875 585.30078125 -367.91796875 588.30078125 C-358.87032447 586.98659828 -352.43214385 583.33729946 -345.11328125 578.1875 C-340.48254387 574.94152047 -335.65619271 572.05723575 -330.79296875 569.17578125 C-329.07024985 568.15244921 -327.34759215 567.12901414 -325.625 566.10546875 C-324.81240723 565.62303711 -323.99981445 565.14060547 -323.16259766 564.64355469 C-320.24527852 562.89836704 -317.36300804 561.10283564 -314.48046875 559.30078125 C-296.41781597 548.16595606 -277.67521302 538.20228375 -258.91796875 528.30078125 C-257.21084717 527.39875977 -257.21084717 527.39875977 -255.46923828 526.47851562 C-202.53856676 498.58416605 -150.86154445 479.60192963 -92.20172119 468.02697754 C-86.59648859 466.92078256 -80.99263353 465.80785644 -75.39049721 464.68608665 C-73.48017239 464.30535254 -71.5686238 463.93077432 -69.6570282 463.55647278 C-51.32754582 460.73573005 -51.32754582 460.73573005 -34.91796875 453.30078125 C-31.48619193 447.11695912 -31.40894366 439.98603288 -31.2578125 433.09375 C-31.22326965 432.02861679 -31.18872681 430.96348358 -31.15313721 429.86607361 C-31.08046591 427.58921507 -31.01365714 425.31216305 -30.95223999 423.03497314 C-30.82081504 418.2182136 -30.65616912 413.40275943 -30.49336243 408.5869751 C-30.37235483 404.99833662 -30.25547018 401.40957836 -30.13867188 397.82080078 C-29.86827779 389.68507695 -29.54294609 381.55428274 -29.10546875 373.42578125 C-29.05070877 372.39934509 -29.05070877 372.39934509 -28.99484253 371.35217285 C-28.46589302 361.7680024 -27.65935554 352.21923514 -26.75 342.6640625 C-26.64229782 341.52354431 -26.53459564 340.38302612 -26.42362976 339.20794678 C-25.89490569 333.63818617 -25.35009822 328.07101945 -24.77026367 322.50634766 C-21.0628742 285.56928323 -20.8348756 248.26865176 -19.87866211 211.18261719 C-18.81111188 169.78874744 -17.27776908 128.57756977 -13.91796875 87.30078125 C-12.16559975 65.73447311 -12.16559975 65.73447311 -11.79296875 44.11328125 C-11.80650391 42.22125977 -11.80650391 42.22125977 -11.8203125 40.29101562 C-11.84310327 37.29402888 -11.8753872 34.29753951 -11.91796875 31.30078125 C-18.12685732 38.16226617 -18.12685732 38.16226617 -24.203125 45.140625 C-28.7851163 50.39546846 -33.75094803 55.28302706 -38.68774414 60.20092773 C-40.35223152 61.86005445 -42.01130322 63.52446176 -43.66992188 65.18945312 C-49.24685913 70.77019425 -54.89159812 76.20245645 -60.91796875 81.30078125 C-62.00148963 82.24960367 -63.08356903 83.20007523 -64.1640625 84.15234375 C-107.84102906 122.25338284 -162.08659703 148.54056875 -218.91796875 160.30078125 C-220.31108482 160.63307505 -221.70298778 160.97048831 -223.09375 161.3125 C-240.72667923 165.58702946 -258.76011388 168.0217549 -276.91796875 167.30078125 C-277.24796875 165.98078125 -277.57796875 164.66078125 -277.91796875 163.30078125 C-275.05183915 161.39002818 -273.32771176 160.76066979 -270.05078125 159.96875 C-269.08922119 159.73027344 -268.12766113 159.49179687 -267.13696289 159.24609375 C-266.11594482 158.99601563 -265.09492676 158.7459375 -264.04296875 158.48828125 C-255.34460939 156.28837234 -247.20969495 153.72929399 -238.91796875 150.30078125 C-236.3996238 149.35572492 -233.87910456 148.4188874 -231.35546875 147.48828125 C-223.6419231 144.61336766 -216.00077369 141.56829857 -208.3671875 138.48828125 C-204.58715238 136.96439636 -200.79734505 135.46848722 -197 133.98828125 C-162.83751173 120.61622351 -127.84328174 105.26211218 -98.91796875 82.30078125 C-97.68240234 81.33591797 -97.68240234 81.33591797 -96.421875 80.3515625 C-86.46742587 72.49949303 -76.83373254 64.29207892 -67.58276367 55.62402344 C-64.77831134 52.99842298 -61.93464083 50.43748193 -59.02734375 47.92578125 C-54.85248804 44.28838166 -50.89289378 40.46749832 -46.98046875 36.55078125 C-46.27954102 35.84977295 -45.57861328 35.14876465 -44.85644531 34.42651367 C-40.31690509 29.8369901 -36.13225241 25.09586537 -32.125 20.03125 C-12.30717621 -4.48673023 -12.30717621 -4.48673023 0 0 Z " fill="#030303" transform="translate(929.91796875,174.69921875)"/>
<path d="M0 0 C47.36013987 1.18992023 88.00664934 10.52127397 131 30 C131.88461914 30.39606445 132.76923828 30.79212891 133.68066406 31.20019531 C142.48182135 35.1470497 150.93318214 39.54336513 159.33398438 44.28100586 C184.1117909 58.23332198 210.00520838 67.40301827 237.375 74.875 C238.08032867 75.06808746 238.78565735 75.26117493 239.51235962 75.46011353 C266.12128731 82.71398905 290.25471306 84.54890237 316.875 76.3125 C326.02877521 73.50654825 333.23983593 72.32127996 342.02734375 76.73828125 C347.90951776 80.50054304 350.83945497 86.49675838 352.5546875 93.15234375 C356.62598419 119.18721471 349.23332005 147.94921464 344.95092773 173.60083008 C342.67696609 187.4793486 340.91662575 201.424897 339.14282227 215.37475586 C336.9707209 232.44824824 334.54481896 249.47819578 332 266.5 C330.92467696 273.7108996 329.86285888 280.92273458 328.85620117 288.14355469 C326.06688286 308.06452577 322.68112067 327.64409237 317.72167969 347.15185547 C317.0725471 349.71368928 316.44322393 352.27935276 315.8203125 354.84765625 C311.69115034 371.55581784 305.9569347 387.80173096 300.1484375 403.98828125 C299.90856613 404.65678604 299.66869476 405.32529083 299.42155457 406.01405334 C297.44351439 411.52432297 297.44351439 411.52432297 296.53518677 414.05044556 C292.87515486 424.25090077 289.61191913 434.48017103 287 445 C290.51514254 446.17171418 293.76731502 446.22281296 297.4296875 446.32421875 C314.70418262 446.94744519 330.62433957 447.88795773 347 454 C346 457 346 457 343.62109375 458.46484375 C322.84101753 468.07722256 300.64740931 469.59165946 278 469 C277.89429688 469.72960937 277.78859375 470.45921875 277.6796875 471.2109375 C276.94493397 474.2259606 275.88093924 476.0828193 274.125 478.625 C273.61195313 479.38039063 273.09890625 480.13578125 272.5703125 480.9140625 C271.15921961 482.78849933 269.7063275 484.3958478 268 486 C265 485 265 485 264.0859375 483.29296875 C263.73402344 482.25076172 263.73402344 482.25076172 263.375 481.1875 C263.13523437 480.50042969 262.89546875 479.81335938 262.6484375 479.10546875 C262.43445313 478.41066406 262.22046875 477.71585938 262 477 C261.70996094 476.09701172 261.70996094 476.09701172 261.4140625 475.17578125 C260.83137561 472.11392656 260.97607893 469.10951406 261 466 C260.03642578 465.89333008 259.07285156 465.78666016 258.08007812 465.67675781 C248.09841451 464.52701921 238.32731694 462.82565289 228.5 460.75 C227.76898071 460.59759857 227.03796143 460.44519714 226.28479004 460.28817749 C209.6141201 456.81055864 193.07166089 452.87474532 176.73657227 448.046875 C173.27833676 447.07798158 169.81365577 446.21257242 166.32270813 445.37333679 C154.98268193 442.63340716 143.90796353 439.27763268 132.8125 435.6875 C131.00833743 435.10932203 129.20397277 434.53177436 127.39941406 433.95483398 C122.26372912 432.3110852 117.13125313 430.65752562 112 429 C111.31846863 428.77985229 110.63693726 428.55970459 109.93475342 428.33288574 C108.13228298 427.75057136 106.32981334 427.16825451 104.52734375 426.5859375 C94.3307583 423.29636961 84.12933807 420.1106056 73.81201172 417.21923828 C67.3009057 415.39136346 60.83701547 413.43129433 54.375 411.4375 C14.59315572 399.27462551 -25.62501695 392.57059609 -67.04589844 389.31152344 C-131.22815084 384.25493205 -131.22815084 384.25493205 -150 367 C-154.99393526 360.81818693 -157.55447064 353.79249389 -157.30078125 345.78125 C-155.80287191 331.93045191 -150.70162739 318.66971385 -146.21875 305.578125 C-144.75035064 301.28139183 -143.36601791 296.97215013 -142.0546875 292.625 C-140.02530998 285.95704528 -137.72074493 279.39696573 -135.37191772 272.83657837 C-131.70678111 262.59770664 -128.0932135 252.34387846 -124.62890625 242.03515625 C-117.49426254 220.82273431 -109.86353831 199.88731092 -101.72344971 179.04081726 C-98.80141035 171.535417 -96.01147069 163.98359943 -93.2355957 156.42318726 C-88.39019018 143.22931403 -83.31567185 130.14801609 -78.05010986 117.11630249 C-73.5578475 105.99332187 -69.24706325 94.81645635 -65.07312012 83.57034302 C-61.55253897 74.08482045 -57.92096454 64.65398896 -54.1875 55.25 C-49.25674372 42.80334619 -44.51750754 30.28618915 -40.60546875 17.4765625 C-40.38552246 16.77120361 -40.16557617 16.06584473 -39.93896484 15.33911133 C-39.35685007 13.45597229 -38.79664565 11.56609854 -38.23828125 9.67578125 C-37 7 -37 7 -34.98046875 5.98046875 C-33 6 -33 6 -31 8 C-30.98486328 10.03344727 -30.98486328 10.03344727 -31.3203125 12.56640625 C-31.44124268 13.51378662 -31.56217285 14.46116699 -31.68676758 15.43725586 C-31.83138428 16.46858643 -31.97600098 17.49991699 -32.125 18.5625 C-32.26897217 19.63443604 -32.41294434 20.70637207 -32.5612793 21.81079102 C-33.02574056 25.20949929 -33.51058026 28.60480302 -34 32 C-34.14743652 33.04897461 -34.29487305 34.09794922 -34.44677734 35.17871094 C-38.15228 61.24472188 -44.95975926 85.9573274 -53.29241943 110.87652588 C-54.26388966 113.79194212 -55.22382881 116.7111039 -56.18374634 119.63034058 C-65.08731971 146.70430743 -74.46935605 173.54306231 -84.75296021 200.12524414 C-85.14385834 201.13578857 -85.53475647 202.14633301 -85.9375 203.1875 C-86.32928436 204.20030029 -86.72106873 205.21310059 -87.12472534 206.2565918 C-92.65875062 220.59012392 -97.83161274 234.97989173 -102.578125 249.59155273 C-107.0468817 263.32869393 -111.91373403 276.91387704 -116.83862305 290.4934082 C-120.07208222 299.43291801 -123.15261277 308.38693588 -125.92553711 317.48046875 C-126.85529194 320.5259915 -127.81777293 323.55731559 -128.80078125 326.5859375 C-129.30518001 328.18213612 -129.80910608 329.7784842 -130.3125 331.375 C-130.57611328 332.17292969 -130.83972656 332.97085937 -131.11132812 333.79296875 C-132.8691561 339.44541298 -134.10717605 345.08990096 -133 351 C-129.89703687 354.63934895 -126.07793626 355.98995957 -121.625 357.5625 C-120.54476562 357.95566406 -119.46453125 358.34882812 -118.3515625 358.75390625 C-107.21735696 362.19813948 -95.69151497 363.53313281 -84.125 364.5 C-82.74414601 364.62219108 -81.36336945 364.74525992 -79.98266602 364.86914062 C-76.38207036 365.19050766 -72.78076856 365.50296836 -69.17913818 365.8125 C-41.13750618 368.22529146 -13.56149181 371.08123203 14 377 C14.94230469 377.19851563 15.88460937 377.39703125 16.85546875 377.6015625 C26.97480333 379.74246544 36.95608102 382.18937294 46.875 385.125 C47.90085709 385.4265097 48.92671417 385.72801941 49.98365784 386.03866577 C53.32356124 387.02202031 56.66197347 388.0102941 60 389 C61.13130341 389.33509583 62.26260681 389.67019165 63.42819214 390.01544189 C71.9355568 392.53776457 80.43723693 395.07886291 88.9375 397.625 C90.25991143 398.02041195 91.58234002 398.41576649 92.90478516 398.81106567 C108.34734516 403.42888889 123.74389489 408.15686333 139.07092285 413.14718628 C158.49266814 419.46615881 178.13497241 424.51765072 197.99345398 429.26887512 C202.7467142 430.41623414 207.43840595 431.68147866 212.125 433.08203125 C220.40769264 435.50681248 228.83769409 437.04301295 237.3125 438.625 C240.45485766 439.21909349 243.59657754 439.81652187 246.73828125 440.4140625 C247.47474884 440.55346252 248.21121643 440.69286255 248.97000122 440.83648682 C254.00514704 441.79428217 259.00797368 442.83959803 264 444 C264.14695312 442.36611328 264.14695312 442.36611328 264.296875 440.69921875 C264.99260067 435.21378174 266.59949378 430.07639912 268.25 424.8125 C268.76203979 423.16157349 268.76203979 423.16157349 269.28442383 421.47729492 C273.2677004 408.84155726 277.70872446 396.36405081 282.15209961 383.88439941 C295.43686867 346.55480868 302.88192546 308.71169317 308.10139465 269.51147842 C308.67856304 265.19870574 309.27017687 260.88791289 309.86035156 256.5769043 C310.9232068 248.80033847 311.97625673 241.02249188 313.02381325 233.24385166 C314.74946242 220.43115928 316.49522524 207.62123593 318.25 194.8125 C318.48831543 193.06681229 318.48831543 193.06681229 318.73144531 191.28585815 C321.18204569 173.36694369 323.87684274 155.49648722 326.83105469 137.65356445 C328.66683063 126.52829177 330.20367529 115.61738273 330.0625 104.3125 C330.05573242 103.24225586 330.05573242 103.24225586 330.04882812 102.15039062 C330.03730574 100.43355526 330.0193863 98.71676457 330 97 C328.83597656 97.31022095 328.83597656 97.31022095 327.6484375 97.62670898 C324.10036579 98.56903322 320.55022595 99.50332623 317 100.4375 C315.77925781 100.76298828 314.55851562 101.08847656 313.30078125 101.42382812 C287.61196422 108.15846394 262.38529795 105.77773194 237 99 C235.83726562 98.69497559 234.67453125 98.38995117 233.4765625 98.07568359 C211.13054635 92.14695994 188.67442572 85.48045369 168 75 C166.26363281 74.16662109 166.26363281 74.16662109 164.4921875 73.31640625 C155.87542556 69.15962812 147.53358549 64.54797712 139.1875 59.875 C118.88224685 48.52506674 98.54009082 37.68662853 76.86914062 29.14257812 C74.07025153 28.02797627 71.2924055 26.87156239 68.515625 25.703125 C48.02505004 17.20818797 26.43206609 11.4168292 4.7890625 6.65625 C2 6 2 6 0 5 C0 3.35 0 1.7 0 0 Z " fill="#020202" transform="translate(280,248)"/>
<path d="M0 0 C1.67542976 0.28604898 3.34385343 0.61781233 5 1 C5.21615967 2.27004883 5.43231934 3.54009766 5.6550293 4.84863281 C6.47013565 9.614852 7.3040406 14.37763002 8.14331055 19.13964844 C8.50219144 21.19085639 8.85614584 23.24293323 9.20483398 25.29589844 C12.82949914 46.5979363 18.12182824 62.29158477 36 76 C50.27749816 86.06073706 65.5150122 92.84647271 81.8125 98.875 C83.45457962 99.48787272 85.09650491 100.10115908 86.73828125 100.71484375 C90.76080107 102.21564407 94.78713677 103.70587636 98.81500244 105.19226074 C100.81337191 105.93100824 102.8101642 106.67379233 104.80615234 107.41894531 C123.56311073 114.41034546 142.41918991 119.91625081 161.85009766 124.68261719 C169.94549183 126.68733918 177.94666931 128.94825139 185.93774414 131.33276367 C190.96919867 132.83261437 196.00279911 134.28306428 201.08203125 135.61328125 C225.15330166 141.95316575 247.53333451 151.64388644 270.04663086 162.07788086 C284.94008344 168.96833212 300.06535963 175.23023842 315.40625 181.0625 C357.54121855 197.20169418 357.54121855 197.20169418 365.375 213.9375 C365.58125 214.618125 365.7875 215.29875 366 216 C352.8576565 218.90289723 342.3109061 215.68802194 330.0625 211.25 C328.37310618 210.65262421 326.68340389 210.05612015 324.9934082 209.46044922 C302.5618392 201.49808157 280.68969881 192.45195524 259.06689453 182.51635742 C235.81666758 171.83372333 212.82679833 162.22144414 187.9140625 156.20703125 C182.63767899 154.92756486 177.41580632 153.4830207 172.19116211 152.00878906 C166.75660488 150.47898375 161.30768761 149.01119445 155.85083008 147.56298828 C131.02572412 140.9535273 106.86577258 133.5620059 83 124 C81.83952148 123.53658203 80.67904297 123.07316406 79.48339844 122.59570312 C55.91790373 113.11097395 35.61356607 102.51293782 17 85 C16.35160156 84.41605469 15.70320313 83.83210937 15.03515625 83.23046875 C5.92503512 74.71838621 -0.62453178 62.06215507 -1.09327698 49.50027466 C-1.13221505 46.43073073 -1.13855841 43.3627562 -1.1328125 40.29296875 C-1.13376923 39.17183182 -1.13472595 38.05069489 -1.13571167 36.89558411 C-1.13639042 34.53463688 -1.13455745 32.17368776 -1.13037109 29.81274414 C-1.12499343 26.18306345 -1.13033927 22.5535051 -1.13671875 18.92382812 C-1.13605841 16.63020806 -1.13477815 14.33658807 -1.1328125 12.04296875 C-1.13483673 10.95138962 -1.13686096 9.85981049 -1.13894653 8.7351532 C-1.13579437 7.73353653 -1.13264221 6.73191986 -1.12939453 5.69995117 C-1.12859894 4.81425949 -1.12780334 3.92856781 -1.12698364 3.01603699 C-1 1 -1 1 0 0 Z " fill="#030303" transform="translate(136,649)"/>
<path d="M0 0 C0.96045227 -0.00331329 1.92090454 -0.00662659 2.91046143 -0.01004028 C16.41116059 -0.0376163 29.72287939 0.72650075 43.15539551 2.0664978 C45.29568707 2.27969649 47.43729865 2.47956359 49.57910156 2.67700195 C52.74299229 2.97059443 55.90247386 3.29269157 59.0625 3.625 C60.53686523 3.76325195 60.53686523 3.76325195 62.04101562 3.90429688 C81.56171069 5.97890151 100.79463789 11.17817278 119.81616211 15.859375 C123.18744001 16.68748526 126.56134928 17.50419113 129.93554688 18.3203125 C143.50849141 21.63136294 156.88193549 25.36766153 170.209198 29.55712891 C173.47504298 30.57829078 176.75190661 31.55822085 180.03125 32.53515625 C191.45382414 35.97038832 202.72673781 39.43191834 213.625 44.3125 C214.2432666 44.58416992 214.8615332 44.85583984 215.49853516 45.13574219 C222.83819995 48.3974022 229.23030794 51.33269497 233.625 58.3125 C234.3125 61.0625 234.3125 61.0625 233.625 63.3125 C229.09274782 66.74231246 225.37604128 67.47410601 219.8125 67.0625 C218.28689453 66.96195313 218.28689453 66.96195313 216.73046875 66.859375 C205.52413621 65.58955251 194.91385705 62.26174174 184.3125 58.5625 C171.89405649 54.31194789 159.39632998 50.54290421 146.71679688 47.14355469 C143.53175316 46.28743586 140.35160866 45.41468285 137.171875 44.5390625 C111.20200328 37.41772772 85.04511606 31.48161888 58.625 26.3125 C57.37138672 26.06580566 56.11777344 25.81911133 54.82617188 25.56494141 C40.22019397 22.73626347 25.74813663 20.84747516 10.9335022 19.71179199 C-4.31734668 18.52699765 -19.25243788 16.02531464 -34.30464172 13.36286926 C-43.29426987 11.78135878 -52.32890593 10.52289287 -61.375 9.3125 C-61.75718767 7.65635343 -62.08895102 5.98792976 -62.375 4.3125 C-59.36666622 1.30416622 -50.08899975 2.11527266 -45.75 1.75 C-44.9445575 1.68213287 -44.13911499 1.61426575 -43.30926514 1.54434204 C-28.87336652 0.36833342 -14.48025126 0.0071738 0 0 Z " fill="#030303" transform="translate(253.375,675.6875)"/>
<path d="M0 0 C1.08471588 -0.00762863 1.08471588 -0.00762863 2.19134521 -0.01541138 C20.41269589 -0.11832917 37.23015676 2.33387574 54.8125 7.0625 C56.45673492 7.49396936 58.10126649 7.92430986 59.74609375 8.35351562 C67.0419064 10.26648018 74.31784807 12.24382758 81.57870483 14.28535461 C88.40780996 16.20379548 95.20055882 18.11044222 102.1875 19.375 C103.06422363 19.53693848 103.94094727 19.69887695 104.84423828 19.86572266 C113.13616854 21.27441724 121.45103214 21.85643174 129.82995605 22.45565796 C141.38930728 23.28596449 152.64992524 24.25643678 163.9375 27.0625 C164.85901855 27.28663574 165.78053711 27.51077148 166.72998047 27.74169922 C174.07466066 29.74578871 182.39047584 33.17700069 187.3125 39.25 C187.3125 40.24 187.3125 41.23 187.3125 42.25 C178.00227625 47.61364673 168.1147933 46.73519885 157.75 46.5625 C156.01238054 46.55097969 154.27474861 46.54120316 152.53710938 46.53320312 C112.26565947 46.24824292 77.1992959 36.02537137 39.19921875 23.51953125 C38.34646866 23.23890839 37.49371857 22.95828552 36.61512756 22.66915894 C32.7373074 21.39007224 28.86329565 20.10153491 24.99804688 18.78491211 C18.53555418 16.5866944 12.15165179 14.46594384 5.4375 13.1875 C4.65084961 13.03249023 3.86419922 12.87748047 3.05371094 12.71777344 C-10.73211833 10.1576213 -24.7606027 8.80969214 -38.6875 7.25 C-39.25 5.3125 -39.25 5.3125 -39.6875 3.25 C-33.27024768 -3.16725232 -9.09794473 0.02552515 0 0 Z " fill="#030303" transform="translate(302.6875,515.75)"/>
<path d="M0 0 C2.30859375 0.79736328 2.30859375 0.79736328 5 2 C5.81597656 2.35690918 6.63195312 2.71381836 7.47265625 3.08154297 C8.32730469 3.46455566 9.18195313 3.84756836 10.0625 4.2421875 C11.02542969 4.66886719 11.98835938 5.09554688 12.98046875 5.53515625 C14.96449041 6.41551774 16.94634146 7.30079048 18.92578125 8.19140625 C30.29835629 13.20738968 41.41813587 16.243913 53.6875 18.0625 C66.57542132 20.13444806 78.57197334 23.78370453 90.83666992 28.16625977 C103.23872621 32.52301982 115.17058084 34.05195141 128.3125 34.0625 C148.86094185 34.63505107 170.36726191 42.14238607 189.6875 48.6875 C190.71238525 49.03103516 191.73727051 49.37457031 192.79321289 49.72851562 C201.73397581 52.90732002 209.45744295 57.13314483 215 65 C215 65.66 215 66.32 215 67 C193.98804334 72.85617521 171.03577242 66.91632976 150.40454102 61.79296875 C139.86679069 59.18109106 129.27372984 57.37802912 118.5 56.0625 C103.62440218 54.11605315 90.05131527 49.84208673 76.1875 44.25 C74.59770602 43.61803297 73.00753243 42.98702008 71.41699219 42.35693359 C68.32091452 41.1285279 65.22748435 39.89381243 62.13623047 38.65332031 C58.69479409 37.27400241 55.24367467 35.92195666 51.78515625 34.5859375 C37.41139415 29.01175509 23.80156505 22.65560364 11 14 C9.81314405 13.23337698 8.62560555 12.46780996 7.4375 11.703125 C6.22842752 10.90737193 5.02008342 10.11051097 3.8125 9.3125 C3.2347583 8.94390869 2.6570166 8.57531738 2.06176758 8.19555664 C0.45703125 7.11328125 0.45703125 7.11328125 -2 5 C-2 3.68 -2 2.36 -2 1 C-1.34 0.67 -0.68 0.34 0 0 Z " fill="#030303" transform="translate(313,375)"/>
<path d="M0 0 C0 0.66 0 1.32 0 2 C-1.16015625 1.96519531 -2.3203125 1.93039062 -3.515625 1.89453125 C-23.14930646 1.47737609 -37.43801916 6.29597026 -52 20 C-56.00194384 24.53820432 -60.05103238 29.19321883 -59.9375 35.4375 C-58.81927119 39.68676949 -57.41835675 41.29711327 -54 44 C-46.9761361 46.54834064 -37.25920914 45.3527781 -29.9375 44.5 C-21.39522624 43.51435303 -12.09878667 42.68686 -4 46 C-2 48 -2 48 -1.5625 51.3125 C-2.12241066 56.031747 -3.34991133 57.03670433 -7 60 C-9.5868526 61.0795088 -12.19839791 61.68030746 -14.9375 62.25 C-15.62779297 62.40984375 -16.31808594 62.5696875 -17.02929688 62.734375 C-19.01306941 63.18565975 -21.00652031 63.59373641 -23 64 C-23.90621094 64.19207031 -24.81242187 64.38414062 -25.74609375 64.58203125 C-31.90986801 65.37377656 -38.14399324 65.36351618 -44.3515625 65.51757812 C-57.70932728 65.59201654 -57.70932728 65.59201654 -70 70 C-70.33 70.99 -70.66 71.98 -71 73 C-51.59250777 79.33714032 -30.5762869 71.57670924 -11.75 66.4375 C6.57846118 61.43418748 24.01740761 58.29156403 43 57 C42.01 52.545 42.01 52.545 41 48 C37.85650159 49.0478328 37.26748815 49.57913668 35.3125 52.0625 C34.1678125 53.5165625 34.1678125 53.5165625 33 55 C29.50832834 54.70902736 28.23799325 54.24460417 25.75 51.6875 C24.20760276 49.31881853 23.40837087 47.75650336 23 45 C26.16115776 46.36983503 26.9927092 46.9890638 29 50 C31.87948432 49.6800573 33.27298814 48.79899985 35.63671875 47.05859375 C38.96369633 42.75276987 38.45986786 39.51443426 38.125 34.25 C37.75811603 27.66592015 37.40272992 20.83783635 41 15 C42.98486328 14.12988281 42.98486328 14.12988281 45 14 C47.42431655 16.42431655 47.2561428 17.04195948 47.265625 20.359375 C47.26949219 21.66261719 47.26949219 21.66261719 47.2734375 22.9921875 C47.26570312 23.90226563 47.25796875 24.81234375 47.25 25.75 C47.26160156 27.09191406 47.26160156 27.09191406 47.2734375 28.4609375 C47.25884296 33.40848732 46.82373844 37.33775816 45 42 C44.44169694 47.91801244 45.92435183 52.55142356 48 58 C58.16390156 59.76750297 58.16390156 59.76750297 67.4375 56.5625 C68.283125 55.716875 69.12875 54.87125 70 54 C69.01 53.01 68.02 52.02 67 51 C67.92619141 51.14308594 67.92619141 51.14308594 68.87109375 51.2890625 C75.04496988 52.09721067 80.02840419 51.74532148 86 50 C85.95875 48.906875 85.9175 47.81375 85.875 46.6875 C86 43 86 43 88 40 C88.66 40 89.32 40 90 40 C90 41.65 90 43.3 90 45 C90.99 42.03 90.99 42.03 92 39 C93.32 39 94.64 39 96 39 C96.66 39.99 97.32 40.98 98 42 C99.32 42 100.64 42 102 42 C101.39990913 36.71915152 101.39990913 36.71915152 100.4375 31.5 C99.57644963 26.57971219 99.13997284 22.29004073 102 18 C103.9375 18.375 103.9375 18.375 106 19 C107.36839363 21.73678725 107.21634818 24.04264424 107.31640625 27.1015625 C107.37924805 28.91914062 107.37924805 28.91914062 107.44335938 30.7734375 C107.48267578 32.04445313 107.52199219 33.31546875 107.5625 34.625 C107.60568359 35.90375 107.64886719 37.1825 107.69335938 38.5 C107.79969886 41.66655348 107.90172833 44.83318753 108 48 C109.32 48 110.64 48 112 48 C112 47.34 112 46.68 112 46 C111.01 45.67 110.02 45.34 109 45 C109.33 43.35 109.66 41.7 110 40 C115.75 38.875 115.75 38.875 118 40 C118.98334755 42.85170789 119 44.89640609 119 48 C116.15389899 50.13457576 113.491933 51.35334574 110 52 C111.98 52 113.96 52 116 52 C116.33 52.99 116.66 53.98 117 55 C116.14003418 55.15819214 116.14003418 55.15819214 115.26269531 55.31958008 C102.3986535 57.62305001 102.3986535 57.62305001 89.6875 60.625 C79.49309222 63.24559635 69.59512463 64.30532504 59.125 63.625 C28.11554964 61.64424823 1.2717623 67.08183709 -28.4453125 75.265625 C-37.40612922 77.67837482 -45.76237935 79.3605476 -55.0625 79.375 C-55.89587891 79.39949219 -56.72925781 79.42398438 -57.58789062 79.44921875 C-63.6933312 79.47772664 -68.77760498 78.27535703 -74 75 C-75.375 72.5625 -75.375 72.5625 -75 70 C-71.02806004 64.97666417 -67.02048083 63.15732326 -60.8046875 62.40234375 C-59.16229401 62.23877545 -57.51897505 62.084323 -55.875 61.9375 C-54.9969873 61.85298584 -54.11897461 61.76847168 -53.21435547 61.68139648 C-47.18747292 61.12570735 -41.17112107 60.80688746 -35.125 60.5625 C-19.42329364 60.06974495 -19.42329364 60.06974495 -6 53 C-6 52.01 -6 51.02 -6 50 C-8.34253515 48.82873243 -9.64123089 48.90185231 -12.24682617 48.94995117 C-13.12501511 48.96293747 -14.00320404 48.97592377 -14.90800476 48.98930359 C-15.86004288 49.00701309 -16.81208099 49.0247226 -17.79296875 49.04296875 C-19.80532856 49.06536842 -21.81769908 49.08682257 -23.83007812 49.10742188 C-27.00558321 49.14444042 -30.18054372 49.18736974 -33.35571289 49.24682617 C-36.41821052 49.30151789 -39.48010321 49.33047389 -42.54296875 49.35546875 C-43.48488571 49.37925095 -44.42680267 49.40303314 -45.39726257 49.42753601 C-51.49659246 49.45161959 -55.01177049 48.56928675 -60 45 C-62.95273526 41.7444201 -64.28126826 39.08101993 -64.625 34.75 C-64.20530081 26.42596615 -58.29456151 19.52125254 -52.4609375 14.01171875 C-37.89597077 2.10543642 -18.94114607 -7.21567469 0 0 Z " fill="#0B0B0B" transform="translate(477,907)"/>
<path d="M0 0 C-0.93366674 5.92211478 -5.5637335 9.36814448 -10 13 C-26.21802768 23.45248942 -45.96860022 30.62089604 -64.8125 34.4375 C-65.87146484 34.6535791 -66.93042969 34.8696582 -68.02148438 35.09228516 C-77.63722265 36.94409376 -87.26634753 37.92352893 -97 38.875 C-112.02692249 40.34778645 -128.57776448 42.02645144 -142.14648438 49.12255859 C-144.49163265 50.23273548 -145.60906885 49.85390398 -148 49 C-148 47.68 -148 46.36 -148 45 C-145.57863808 43.17700281 -143.31597657 41.71865196 -140.6875 40.25 C-139.92131348 39.81389404 -139.15512695 39.37778809 -138.36572266 38.9284668 C-116.90218905 27.00017217 -93.24635529 20.98921349 -69.64135742 14.83984375 C-61.68975269 12.76219927 -53.8436018 10.45076043 -46 8 C-14.94340415 -1.55705514 -14.94340415 -1.55705514 0 0 Z " fill="#040404" transform="translate(866,346)"/>
<path d="M0 0 C1.76283437 -0.00672792 3.5256597 -0.01686681 5.28845215 -0.03076172 C22.26680086 -0.15458127 38.28464619 0.98445038 54.62420654 5.92724609 C55.82859375 6.28359131 57.03298096 6.63993652 58.27386475 7.00708008 C70.66647914 10.74845259 81.4266543 14.65704682 91.37420654 23.17724609 C92.36420654 23.83724609 93.35420654 24.49724609 94.37420654 25.17724609 C94.37420654 25.83724609 94.37420654 26.49724609 94.37420654 27.17724609 C79.65169588 32.08474965 60.48938359 27.01504447 45.68670654 24.48974609 C43.43619649 24.11843425 41.18537753 23.74899012 38.93426514 23.38134766 C35.56465878 22.83093133 32.19525931 22.2795518 28.82684326 21.72189331 C20.0974368 20.27859644 11.35416043 18.9685737 2.59436035 17.72515869 C-9.38190261 16.02223856 -21.27041567 14.07492259 -33.12677002 11.67431641 C-35.91179439 11.12035884 -38.70143203 10.59574051 -41.49298096 10.07568359 C-42.95223999 9.80316772 -42.95223999 9.80316772 -44.440979 9.52514648 C-46.31194167 9.17639841 -48.18318549 8.82915422 -50.05474854 8.48364258 C-50.88643555 8.32710205 -51.71812256 8.17056152 -52.57501221 8.00927734 C-53.31066406 7.87239502 -54.04631592 7.7355127 -54.80426025 7.59448242 C-56.62579346 7.17724609 -56.62579346 7.17724609 -58.62579346 6.17724609 C-58.62579346 4.52724609 -58.62579346 2.87724609 -58.62579346 1.17724609 C-39.08761048 0.56166399 -19.54867293 0.06617666 0 0 Z " fill="#030303" transform="translate(413.62579345703125,480.82275390625)"/>
<path d="M0 0 C0 1.32 0 2.64 0 4 C-1.8359375 5.78125 -1.8359375 5.78125 -4.375 7.5 C-5.18710937 8.0671875 -5.99921875 8.634375 -6.8359375 9.21875 C-29.46073755 21.95567447 -59.90749369 25.30287432 -85.4375 26.5 C-104.42461262 27.49292264 -121.03968949 32.72585173 -138.50830078 40.03198242 C-140.66890281 40.87136975 -142.7398313 41.50424453 -145 42 C-145.33 40.35 -145.66 38.7 -146 37 C-137.77337753 30.84980868 -129.05002997 25.81351897 -120 21 C-118.83855469 20.37867188 -117.67710937 19.75734375 -116.48046875 19.1171875 C-86.0611129 3.89043923 -33.45973427 -8.63477013 0 0 Z " fill="#040404" transform="translate(840,495)"/>
<path d="M0 0 C3.77422209 0.61797141 6.8951511 1.72012838 10.359375 3.328125 C11.39449219 3.79863281 12.42960937 4.26914062 13.49609375 4.75390625 C15.62074493 5.73078669 17.74324951 6.71235328 19.86328125 7.69921875 C34.05663347 14.12541135 47.72393223 17.53876503 63.20605469 18.79943848 C78.46657645 20.06473103 93.16023404 22.14906459 108 26 C109.09521973 26.27295898 110.19043945 26.54591797 111.31884766 26.82714844 C128.29484951 31.06004048 144.91971467 36.08176296 161.52470398 41.57147217 C162.22940323 41.80440979 162.93410248 42.03734741 163.66015625 42.27734375 C164.36110916 42.50915344 165.06206207 42.74096313 165.78425598 42.97979736 C171.61889398 44.89861213 177.49102326 46.66379341 183.37792969 48.41601562 C197.33200242 52.59207945 210.58161772 57.75701503 223.89746094 63.64013672 C228.88359576 65.82559241 233.90965182 67.91274919 238.9375 70 C239.89575684 70.40089844 240.85401367 70.80179688 241.84130859 71.21484375 C246.7299086 73.25439918 251.62974568 75.25924723 256.55540466 77.20785522 C258.45099265 77.9578183 260.34491235 78.71186287 262.23852539 79.46679688 C264.66623834 80.43204952 267.09763484 81.38809899 269.53295898 82.33398438 C270.62423096 82.76904297 271.71550293 83.20410156 272.83984375 83.65234375 C273.81300537 84.03382568 274.78616699 84.41530762 275.78881836 84.80834961 C278 86 278 86 279 89 C271.38082751 88.63045975 264.87323016 86.91014905 257.75 84.25 C256.68370361 83.85949463 255.61740723 83.46898926 254.51879883 83.06665039 C243.17197289 78.82946692 232.11315418 73.94541075 221.02734375 69.078125 C204.58331881 61.85954755 188.12900989 55.98360252 170.90820312 50.86669922 C167.09658614 49.73076568 163.29612537 48.56153202 159.5 47.375 C158.26765625 46.99085938 157.0353125 46.60671875 155.765625 46.2109375 C153.07645273 45.34616219 150.40414809 44.45971519 147.734375 43.5390625 C137.39116773 39.98010946 127.01276264 37.10597744 116.37353516 34.5703125 C112.76208909 33.70255504 109.1629022 32.78729103 105.5625 31.875 C103.77007888 31.42238863 101.97740444 30.97057953 100.1809082 30.53442383 C98.53787514 30.1318044 96.89903441 29.7120189 95.26245117 29.28393555 C85.21732887 26.77402973 75.15462123 25.80818287 64.8737793 24.84594727 C47.69592394 23.21420563 33.16212552 19.70765519 17.75 11.875 C16.46034927 11.23423832 15.16998494 10.59491083 13.87890625 9.95703125 C10.5773113 8.32159847 7.28736693 6.663872 4 5 C2.66710343 4.33246052 1.33397831 3.66537515 0 3 C0 2.01 0 1.02 0 0 Z " fill="#090909" transform="translate(251,559)"/>
<path d="M0 0 C10.77114664 0.03309108 20.06392643 2.21247252 30.32421875 5.3125 C36.25876822 7.10437515 42.23793415 8.67829437 48.25 10.1875 C49.7664209 10.56865967 49.7664209 10.56865967 51.31347656 10.95751953 C57.24453923 12.41472859 63.15660765 13.6098892 69.1875 14.5625 C79.10431541 16.16243942 87.58128741 19.69187245 96.41796875 24.3828125 C103.88735361 28.2127294 111.53980839 30.47929922 119.625 32.625 C128.02702992 34.8880345 136.18942459 37.25001948 144.13427734 40.86474609 C150.40245915 43.34788167 156.11547526 44.28402419 162.875 44.0546875 C164.37108395 44.02936208 165.86717825 44.00464266 167.36328125 43.98046875 C169.6688054 43.93135296 171.9737519 43.87577051 174.27880859 43.80810547 C184.22929447 43.5355776 192.89677559 44.2707895 202.49194336 47.01953125 C209.01584044 48.84289896 215.7171908 49.63068397 222.4375 50.38671875 C236.53447828 52.04250607 251.08854927 54.91802716 264 61 C264 61.99 264 62.98 264 64 C259.11761165 64.14507136 254.90745558 63.69772943 250.16796875 62.5390625 C248.87035415 62.22991297 247.57266244 61.92108701 246.27490234 61.61254883 C245.60690613 61.4509024 244.93890991 61.28925598 244.25067139 61.12271118 C234.13078959 58.68143153 224.1617082 56.49235144 213.76513672 55.6394043 C208.17583392 55.14343679 203.16919764 53.77354401 197.89453125 51.90234375 C192.06613883 50.08539551 186.36839024 49.89523537 180.30078125 50.0078125 C178.82878309 50.02534158 177.35677741 50.04224862 175.88476562 50.05859375 C173.60532981 50.08934746 171.3262875 50.12471768 169.04711914 50.17138672 C155.52952449 50.43266719 144.51433239 48.25030113 131.9375 43.125 C125.09257669 40.40847691 118.35253826 38.19338055 111.1875 36.5 C103.43754561 34.64370906 96.79043115 31.77017821 89.80859375 27.96484375 C79.3622856 22.45224017 68.60299211 20.3090343 57.10864258 18.14819336 C47.93580578 16.40881678 39.18470008 14.28908999 30.37451172 11.17602539 C21.50383613 8.08457377 12.41293914 5.76153659 3.23046875 3.80859375 C2.49441406 3.54175781 1.75835937 3.27492188 1 3 C0.67 2.01 0.34 1.02 0 0 Z " fill="#090909" transform="translate(309,329)"/>
<path d="M0 0 C12.39199692 1.35225399 24.51614673 3.23341064 36.6875 5.9375 C47.92532514 8.40115662 59.06950209 9.99086952 70.5 11.1875 C71.27856354 11.26996979 72.05712708 11.35243958 72.85928345 11.43740845 C78.91293198 12.07713899 84.9679793 12.70305961 91.02636719 13.29638672 C110.12779971 15.22956977 128.55943417 20.87626429 147 26 C148.25570801 26.34675781 149.51141602 26.69351562 150.80517578 27.05078125 C166.90860969 31.52357387 182.3636234 36.76860759 197.59960938 43.640625 C209.58279802 49.02744862 221.88174529 50.04389848 234.87890625 50.65625 C238.15172789 51.01671096 240.92253004 51.85231196 244 53 C243.67 53.66 243.34 54.32 243 55 C223.91221732 61.36259423 202.21824112 52.65255161 185 45 C167.29817905 37.23659646 148.61875469 32.41477195 129.81298828 28.12890625 C124.68258015 26.9478051 119.70171465 25.60239832 114.69921875 23.95703125 C107.55086998 21.71338118 100.42527616 20.7384042 93 19.875 C91.75605469 19.71902344 90.51210938 19.56304687 89.23046875 19.40234375 C83.56901328 18.70828487 77.92106328 18.0551537 72.23217773 17.63183594 C57.85569051 16.52284866 44.10383141 13.71068603 30.0625 10.5 C27.80037496 9.99499613 25.53800578 9.49108462 23.27539062 8.98828125 C21.1117571 8.5035944 18.94833703 8.0179535 16.78515625 7.53125 C15.78831314 7.30723511 14.79147003 7.08322021 13.76441956 6.85241699 C9.08346851 5.7804292 4.52386451 4.63727142 0 3 C0 2.01 0 1.02 0 0 Z " fill="#090909" transform="translate(302,431)"/>
<path d="M0 0 C0 0.99 0 1.98 0 3 C-0.95531616 3.2928186 -0.95531616 3.2928186 -1.92993164 3.59155273 C-14.71653164 7.53512632 -27.26536589 11.7676873 -39.6730957 16.78076172 C-45.79044532 19.22137054 -51.91535222 21.2666521 -58.25 23.0625 C-70.10750496 26.4598619 -81.35308124 31.06283322 -92.3203125 36.7109375 C-106.23437082 43.81591051 -119.80340098 47.80107534 -135.00341797 51.28417969 C-144.40285311 53.52950671 -152.4226615 56.67587457 -160.109375 62.64453125 C-162 64 -162 64 -164 64 C-163.4682227 60.07705272 -161.83316691 58.57898388 -158.8125 56.125 C-148.29287803 48.15782487 -136.54591819 45.10112566 -123.87841797 42.26708984 C-112.08580253 39.5586352 -101.60941966 34.397748 -90.8125 29.0625 C-78.96440897 23.29880129 -67.29175594 18.66516623 -54.5625 15.25 C-46.36611577 13.0154869 -38.54293358 9.80325391 -30.67602539 6.61621094 C-20.77516694 2.6808587 -10.75832696 -0.63284276 0 0 Z " fill="#0A0A0A" transform="translate(880,304)"/>
<path d="M0 0 C-1 3 -1 3 -2.67211914 4.02734375 C-11.03192497 7.33471466 -19.67331285 9.12228734 -28.4375 11 C-37.30589653 12.90442237 -45.93804195 14.76183601 -54.41381836 18.05810547 C-59.18551461 19.79597049 -64.12719357 20.89103571 -69.0625 22.0625 C-83.12743075 25.3855151 -83.12743075 25.3855151 -96.6875 30.3125 C-97.69425781 30.74046875 -98.70101562 31.1684375 -99.73828125 31.609375 C-100.81464844 32.06828125 -101.89101563 32.5271875 -103 33 C-105.45452817 34.03180599 -107.91133836 35.05319242 -110.375 36.0625 C-111.49648438 36.52785156 -112.61796875 36.99320312 -113.7734375 37.47265625 C-124.41260033 41.49087504 -135.25160361 43.80526917 -146.45336914 45.49291992 C-148.59424778 45.81731049 -150.73150643 46.16079767 -152.86914062 46.50585938 C-154.24722127 46.71987709 -155.62547102 46.93280935 -157.00390625 47.14453125 C-158.22924072 47.33378174 -159.4545752 47.52303223 -160.71704102 47.71801758 C-163.7853775 47.98156548 -166.04560355 47.79271118 -169 47 C-168 45 -168 45 -165.92138672 44.26977539 C-165.01662598 44.04797607 -164.11186523 43.82617676 -163.1796875 43.59765625 C-161.67523071 43.22435181 -161.67523071 43.22435181 -160.14038086 42.84350586 C-159.06280518 42.58577393 -157.98522949 42.32804199 -156.875 42.0625 C-155.78002197 41.79381104 -154.68504395 41.52512207 -153.55688477 41.24829102 C-147.70484532 39.82897402 -141.85733017 38.53680678 -135.9375 37.4375 C-125.69679979 35.45286818 -116.22515537 32.03531374 -106.73779297 27.79101562 C-95.12310249 22.60770767 -83.44264615 19.04965928 -71.14990234 15.83837891 C-68.10457677 15.02783418 -65.07710169 14.17157791 -62.05078125 13.29296875 C-50.5263719 9.95134301 -38.94104278 6.9101038 -27.27438354 4.10934448 C-25.77532995 3.74891751 -24.27703386 3.38532317 -22.77957153 3.01834106 C-15.1294504 1.15048714 -7.93889088 -0.50504105 0 0 Z " fill="#0C0C0C" transform="translate(868,398)"/>
<path d="M0 0 C1.9375 1.125 1.9375 1.125 3 3 C3.09375 5.8125 3.09375 5.8125 2 9 C-0.56491393 11.10733296 -3.45300118 12.44995334 -6.4375 13.875 C-7.29351807 14.30208252 -8.14953613 14.72916504 -9.03149414 15.16918945 C-11.67506688 16.47433047 -14.33368242 17.74206803 -17 19 C-17.77214844 19.36947754 -18.54429687 19.73895508 -19.33984375 20.11962891 C-30.29117085 25.32343394 -41.52354339 29.45827246 -53.01342773 33.30615234 C-54.66432245 33.88275831 -56.28645305 34.54093444 -57.8984375 35.21875 C-60.58901025 36.21896292 -62.28335037 35.77618561 -65 35 C-64.90234375 33.2578125 -64.90234375 33.2578125 -64 31 C-61.86814095 29.44128656 -59.85281614 28.15723002 -57.5625 26.875 C-56.8921875 26.48812012 -56.221875 26.10124023 -55.53125 25.70263672 C-54.09357217 24.87689865 -52.65218759 24.05758706 -51.20751953 23.24414062 C-49.06563567 22.03699175 -46.93662508 20.80948877 -44.80859375 19.578125 C-33.50817751 13.10800675 -21.84517471 7.47672703 -10.05273438 1.96459961 C-6.36571248 0.23203259 -4.17007062 -0.34041393 0 0 Z " fill="#060606" transform="translate(805,571)"/>
<path d="M0 0 C2.30275556 1.8670991 3.67823871 3.35647741 5 6 C5.56498924 13.06236553 4.1003928 18.38870084 -0.3125 23.875 C-3.15907095 26.12577703 -5.50426545 27.10574232 -9 28 C-9 24.04 -9 20.08 -9 16 C-8.34 16 -7.68 16 -7 16 C-6.34 17.98 -5.68 19.96 -5 22 C-1.08359233 16.3148921 0.25721028 12.94467761 0 6 C-1.1327033 4.63635467 -1.1327033 4.63635467 -4.125 4.9375 C-8.76802198 5.60762688 -10.78984073 8.73093679 -13.51953125 12.28515625 C-14.25236328 13.13400391 -14.25236328 13.13400391 -15 14 C-15.66 14 -16.32 14 -17 14 C-15.84084218 7.56023431 -13.3101217 4.73211384 -8 1 C-5.15916359 -0.42041821 -3.14522722 -0.31452272 0 0 Z " fill="#0E0E0E" transform="translate(543,933)"/>
<path d="M0 0 C2 1 2 1 3 3 C2.47792969 3.27561768 1.95585938 3.55123535 1.41796875 3.83520508 C-16.00333722 13.08550666 -31.67123598 23.61723282 -47 36 C-47.66 34.68 -48.32 33.36 -49 32 C-40.21606031 25.28867529 -30.95142033 19.46255406 -21.57861328 13.62158203 C-18.91197908 11.94464733 -16.26495174 10.23993522 -13.62109375 8.52734375 C-12.75291016 7.96821289 -11.88472656 7.40908203 -10.99023438 6.83300781 C-9.31186849 5.75112314 -7.63725678 4.66338813 -5.96679688 3.56933594 C-4.83661133 2.84472168 -4.83661133 2.84472168 -3.68359375 2.10546875 C-3.01900146 1.67387451 -2.35440918 1.24228027 -1.66967773 0.79760742 C-1.11868408 0.53439697 -0.56769043 0.27118652 0 0 Z " fill="#E6E6E6" transform="translate(609,787)"/>
<path d="M0 0 C2.62733738 2.11646622 3.94426348 3.69324054 5.25 6.8125 C5.12280444 9.9923889 4.81365899 11.99519446 3 14.625 C0.65343145 16.21731438 -0.90308032 16.74306293 -3.75 16.8125 C-6.0625 15.1875 -6.0625 15.1875 -7.75 12.8125 C-8 10.0625 -8 10.0625 -7.75 7.8125 C-6.76 7.4825 -5.77 7.1525 -4.75 6.8125 C-4.42 8.4625 -4.09 10.1125 -3.75 11.8125 C-2.43 11.4825 -1.11 11.1525 0.25 10.8125 C-0.02034634 8.37532742 -0.02034634 8.37532742 -0.75 5.8125 C-4.17094242 3.53187172 -5.43187222 3.59324993 -9.4375 3.6875 C-10.43136719 3.70554687 -11.42523438 3.72359375 -12.44921875 3.7421875 C-13.20847656 3.76539063 -13.96773438 3.78859375 -14.75 3.8125 C-13.75 0.8125 -13.75 0.8125 -12.125 -0.375 C-7.83327381 -1.84322212 -4.16468947 -1.79838864 0 0 Z " fill="#111111" transform="translate(491.75,946.1875)"/>
<path d="M0 0 C2.375 0.3125 2.375 0.3125 3.375 1.3125 C3.625 3.75 3.625 3.75 3.375 6.3125 C2.385 6.9725 1.395 7.6325 0.375 8.3125 C0.045 6.9925 -0.285 5.6725 -0.625 4.3125 C-0.3775 5.4571875 -0.3775 5.4571875 -0.125 6.625 C0.375 9.3125 0.375 9.3125 0.375 12.3125 C-4.33576417 10.01751233 -4.33576417 10.01751233 -5.625 6.875 C-5.625 4.3125 -5.625 4.3125 -4.5 2 C-2.625 0.3125 -2.625 0.3125 0 0 Z " fill="#090909" transform="translate(556.625,945.6875)"/>
<path d="M0 0 C-4.4221853 2.40250067 -8.91234579 3.16557894 -13.8125 4.125 C-14.68970703 4.30675781 -15.56691406 4.48851562 -16.47070312 4.67578125 C-21.41230111 5.6589264 -25.96318428 6.20614525 -31 6 C-23.81947536 -1.18052464 -9.41171328 -0.08828999 0 0 Z " fill="#DADADA" transform="translate(580,960)"/>
<path d="M0 0 C1.66519519 0.34060811 3.33157466 0.67558396 5 1 C5 1.33 5 1.66 5 2 C-4.24 2.66 -13.48 3.32 -23 4 C-19.46332072 1.64221381 -16.15994448 1.05715643 -12.0625 0.3125 C-11.34642578 0.17005859 -10.63035156 0.02761719 -9.89257812 -0.11914062 C-6.31623312 -0.78535503 -3.4535067 -1.27787836 0 0 Z " fill="#C5C5C5" transform="translate(777,746)"/>
<path d="M0 0 C0.7734375 0.495 0.7734375 0.495 1.5625 1 C4.78026512 2.32010877 7.5570528 2.13242105 11 2 C10.67 2.99 10.34 3.98 10 5 C7.11788698 5.96070434 5.30149956 6.10581883 2.3125 6.0625 C1.10013672 6.04896484 1.10013672 6.04896484 -0.13671875 6.03515625 C-1.05904297 6.01775391 -1.05904297 6.01775391 -2 6 C-1.34 4.02 -0.68 2.04 0 0 Z " fill="#E7E7E7" transform="translate(571,951)"/>
<path d="M0 0 C2 1 2 1 3 3 C1.2335343 4.0076952 -0.53833823 5.00591714 -2.3125 6 C-3.79169922 6.8353125 -3.79169922 6.8353125 -5.30078125 7.6875 C-8 9 -8 9 -11 9 C-11 8.34 -11 7.68 -11 7 C-8.6640625 5.23828125 -8.6640625 5.23828125 -5.625 3.3125 C-4.62726562 2.66925781 -3.62953125 2.02601563 -2.6015625 1.36328125 C-1.74304688 0.91339844 -0.88453125 0.46351563 0 0 Z " fill="#EBEBEB" transform="translate(609,787)"/>
<path d="M0 0 C-0.33 0.66 -0.66 1.32 -1 2 C-4.47325181 3.1577506 -7.36067448 3.06866652 -11 3 C-7.74003139 -0.25996861 -4.40088745 -1.46696248 0 0 Z " fill="#ECECEC" transform="translate(560,963)"/>
<path d="M0 0 C0.99 0 1.98 0 3 0 C1.84826645 2.46800047 0.95216435 4.04783565 -1 6 C-1.66 6 -2.32 6 -3 6 C-2 4 -1 2 0 0 Z " fill="#111111" transform="translate(912,655)"/>
</svg>
