<?xml version="1.0" encoding="UTF-8"?>
<svg version="1.1" xmlns="http://www.w3.org/2000/svg" width="1080" height="1080">
<path d="M0 0 C5.14235871 2.61969217 8.89212736 5.80371614 10.81567383 11.35327148 C13.14058423 19.93966404 13.54696204 28.22939752 13.5 37.0625 C13.49984894 38.2792894 13.49984894 38.2792894 13.49969482 39.5206604 C13.44670248 62.18291471 11.60812346 84.81052265 9.95507812 107.40063477 C6.77468981 151.02708283 5.50297156 194.70154525 4.39819336 238.42260742 C3.8090159 261.59563345 3.05240208 284.73051739 1.52734375 307.86328125 C1.46676851 308.78688887 1.40619328 309.71049648 1.34378242 310.66209221 C0.51331108 323.13988363 -0.57197066 335.58476101 -1.78393745 348.03089333 C-3.27108311 363.30487267 -4.22333799 378.5624517 -4.81640625 393.89453125 C-4.84857616 394.72193439 -4.88074608 395.54933754 -4.91389084 396.40181351 C-5.23605272 404.75592626 -5.53653478 413.11046054 -5.79646397 421.46674824 C-5.8963689 424.61731005 -6.00578911 427.76750451 -6.1165905 430.91769981 C-6.16555687 432.38537154 -6.20985567 433.85320824 -6.24893379 435.32117653 C-6.64095424 450.03805716 -7.93693392 462.95685275 -18.77734375 473.7734375 C-25.05173819 478.99988869 -33.82058496 483 -42 483 C-42.22429688 483.5465625 -42.44859375 484.093125 -42.6796875 484.65625 C-53.42922351 503.73826658 -80.52110646 518.28823983 -100.59082031 524.32958984 C-109.97131706 526.93993075 -119.57557227 528.71833371 -129.11816406 530.62207031 C-170.45529515 538.90986592 -212.70578594 550.08296916 -251 568 C-251.80630859 568.3722168 -252.61261719 568.74443359 -253.44335938 569.12792969 C-264.40410918 574.19371358 -275.25389116 579.49381481 -286 585 C-286.72525879 585.37157227 -287.45051758 585.74314453 -288.19775391 586.12597656 C-299.64411671 591.98562285 -299.64411671 591.98562285 -310.3359375 599.1015625 C-311.15964844 599.54628906 -311.15964844 599.54628906 -312 600 C-312.99 599.67 -313.98 599.34 -315 599 C-313.49517996 594.443447 -309.79163871 592.49793461 -305.9375 590.0625 C-305.19870605 589.59013916 -304.45991211 589.11777832 -303.69873047 588.63110352 C-294.12542924 582.64949594 -284.03253187 577.63129048 -273.97412109 572.52832031 C-271.30172479 571.1550482 -268.656048 569.74533061 -266.01953125 568.3046875 C-222.41366368 544.49246825 -172.52595003 532.19097017 -124.09375 522.61767578 C-97.91207375 517.39043139 -77.55993321 508.13905804 -56.79296875 491.25 C-54 489 -54 489 -51 487 C-58.35387036 487.68968283 -65.49347259 488.98055296 -72.73046875 490.44140625 C-73.94699631 490.68469666 -75.16352386 490.92798706 -76.41691589 491.1786499 C-80.34174073 491.96701196 -84.26488822 492.76322158 -88.1875 493.5625 C-88.85316231 493.69782009 -89.51882462 493.83314018 -90.20465851 493.97256088 C-109.9878413 497.99599788 -129.66954471 502.11481891 -149 508 C-149.92522461 508.27585937 -150.85044922 508.55171875 -151.80371094 508.8359375 C-175.83129846 516.08303751 -198.54226895 526.92627364 -221 538 C-222.01336426 538.4964502 -223.02672852 538.99290039 -224.07080078 539.50439453 C-237.58851617 546.13267235 -250.89961622 553.0696223 -264.06298828 560.37548828 C-267.19024618 562.10522844 -270.32698132 563.81692296 -273.46484375 565.52734375 C-290.20086481 574.687513 -306.46736772 584.46855791 -322.60546875 594.64257812 C-356.48275862 616 -356.48275862 616 -367 616 C-367.33 618.31 -367.66 620.62 -368 623 C-366.86820313 622.84402344 -365.73640625 622.68804688 -364.5703125 622.52734375 C-363.08858468 622.33040524 -361.60681143 622.13380835 -360.125 621.9375 C-359.00544922 621.7818457 -359.00544922 621.7818457 -357.86328125 621.62304688 C-352.2265625 620.88671875 -352.2265625 620.88671875 -350 622 C-350.98473352 624.85572721 -351.9583843 625.97012206 -354.4375 627.75 C-359.44488755 629.50697809 -363.70477513 629.19372774 -369 629 C-368.67 632.63 -368.34 636.26 -368 640 C-366.9790625 639.30777344 -365.958125 638.61554687 -364.90625 637.90234375 C-352.13056764 629.28691699 -339.11786082 621.08282024 -326 613 C-325.43075806 612.64879089 -324.86151611 612.29758179 -324.27502441 611.93572998 C-311.20815929 603.87563765 -298.12488447 595.89526656 -284.6027832 588.61279297 C-280.09792458 586.18237367 -275.74808375 583.63528608 -271.4375 580.875 C-235.30066454 558.44366471 -187.1813348 547.99436065 -144.9765625 546.828125 C-107.24473266 545.74764379 -67.29440469 541.79725958 -39.68359375 513.14453125 C-35.54284122 508.4682192 -32.16727093 503.23203429 -28.71875 498.0390625 C-26.08940226 494.08934143 -23.31444636 490.27240578 -20.4375 486.5 C-20.01976318 485.94199707 -19.60202637 485.38399414 -19.17163086 484.80908203 C-18.16410554 483.49961298 -17.0879916 482.24341897 -16 481 C-15.34 481 -14.68 481 -14 481 C-14.60929377 483.97153556 -15.52951814 486.1194277 -17.1875 488.65234375 C-17.63407959 489.33981689 -18.08065918 490.02729004 -18.54077148 490.7355957 C-19.02231689 491.46222412 -19.5038623 492.18885254 -20 492.9375 C-20.49765869 493.69313232 -20.99531738 494.44876465 -21.50805664 495.22729492 C-22.5234669 496.76445235 -23.5417659 498.29970556 -24.56298828 499.83300781 C-25.82803291 501.7406762 -27.07160877 503.66003355 -28.30859375 505.5859375 C-43.92216341 529.24980638 -66.67149939 541.28765918 -93.92358398 547.35961914 C-111.61111088 550.93641334 -129.80975242 551.98050415 -147.8125 552.4375 C-196.27744889 553.83339205 -243.72954514 569.29451644 -284.75097656 594.63476562 C-288.05485993 596.64033616 -291.42751019 598.51077751 -294.8125 600.375 C-301.5808347 604.12566156 -308.20417685 608.09986777 -314.8125 612.125 C-316.22656128 612.98617432 -316.22656128 612.98617432 -317.66918945 613.86474609 C-324.16040941 617.83599249 -330.5925137 621.89516766 -337 626 C-336.33121826 625.63221436 -335.66243652 625.26442871 -334.97338867 624.88549805 C-333.14768946 623.88362827 -331.31874052 622.88767751 -329.48828125 621.89453125 C-327.7166445 620.93233212 -325.94520657 619.96968342 -324.18115234 618.99365234 C-293.27668913 601.89909666 -259.72909373 590.42193863 -225.10864258 583.62695312 C-224.37154053 583.48193359 -223.63443848 583.33691406 -222.875 583.1875 C-222.13080811 583.04119141 -221.38661621 582.89488281 -220.61987305 582.74414062 C-213.80080496 581.32417913 -207.20640963 579.29207718 -200.55908203 577.2250061 C-175.68882352 569.50955936 -150.32423322 565.32629085 -124.69625854 560.98117065 C-107.63411802 558.08323819 -90.80022886 554.72278968 -73.97607422 550.67626953 C-69.34578584 549.62410392 -64.68108204 548.79121004 -60 548 C-60 549.32 -60 550.64 -60 552 C-68.41974544 555.46555293 -76.81490857 558.38607607 -85.69140625 560.44921875 C-86.59417297 560.66129974 -87.4969397 560.87338074 -88.42706299 561.09188843 C-98.63881754 563.44471418 -108.93287725 565.30295583 -119.25 567.125 C-121.13030534 567.46169828 -123.01051396 567.79893719 -124.890625 568.13671875 C-130.2589765 569.09934151 -135.62916325 570.05135367 -141 571 C-141.85827393 571.15174683 -142.71654785 571.30349365 -143.60083008 571.45983887 C-148.4002476 572.30829991 -153.19996574 573.15503529 -158 574 C-151.5479597 573.78605064 -145.09674121 573.55387067 -138.64575195 573.31030273 C-136.46132466 573.22982468 -134.27675174 573.15318706 -132.09204102 573.08081055 C-105.03682618 572.17834766 -73.21922578 570.55441595 -51 553 C-50.14535156 552.35417969 -49.29070313 551.70835937 -48.41015625 551.04296875 C-39.0961348 543.45224642 -36.09664905 535.00672813 -34.8125 523.375 C-34.72258789 522.32590454 -34.72258789 522.32590454 -34.63085938 521.25561523 C-34.18630339 516.18630339 -34.18630339 516.18630339 -32 514 C-29.875 514.375 -29.875 514.375 -28 515 C-23.67046046 527.41134668 -24.09265217 540.15038694 -29.5625 552.0625 C-39.7807759 571.0989515 -59.58670467 582.58410949 -79.64794922 588.7980957 C-93.71319673 592.83816014 -108.30108769 594.59225884 -122.84396362 595.78167725 C-126.55833381 596.08699367 -130.27005634 596.42037524 -133.98216248 596.75192261 C-135.88845365 596.92215527 -137.79483606 597.09136946 -139.7013092 597.259552 C-204.51976124 602.9830217 -268.60852738 613.23300463 -325 648 C-325.60328125 648.3707666 -326.2065625 648.7415332 -326.828125 649.12353516 C-347.77750958 662.1607861 -365.35132853 679.19364959 -380.78515625 698.31640625 C-382.95632827 700.94708557 -385.20241357 703.47942424 -387.5 706 C-390.61458668 709.41739372 -393.5918662 712.9052235 -396.5 716.5 C-397.99802325 718.3349489 -399.49800597 720.16829996 -401 722 C-401.71929688 722.88171875 -402.43859375 723.7634375 -403.1796875 724.671875 C-408.90649436 731.39730654 -415.99002492 738.29881589 -425 740 C-426.78697004 718.01034085 -410.84630224 697.57251162 -398 681 C-397.34 680.34 -396.68 679.68 -396 679 C-395.56506818 676.68036365 -395.22313778 674.34270987 -394.9375 672 C-394.09264305 665.1852861 -394.09264305 665.1852861 -393 663 C-394.32 663.33 -395.64 663.66 -397 664 C-395.84826645 661.53199953 -394.95216435 659.95216435 -393 658 C-392.35232207 655.42938689 -392.35232207 655.42938689 -392 653 C-392.61610138 652.95450516 -393.23220276 652.90901031 -393.86697388 652.86213684 C-399.83342937 652.35390375 -405.36283406 651.32750871 -411.1171875 649.69921875 C-412.38125175 649.35089241 -412.38125175 649.35089241 -413.67085266 648.99552917 C-416.40857954 648.23651774 -419.14202836 647.46344773 -421.875 646.6875 C-422.81808014 646.4218927 -423.76116028 646.1562854 -424.7328186 645.88262939 C-451.08679621 638.44492228 -476.91980295 630.1087461 -502.07861328 619.25634766 C-534.69868455 605.22802685 -568.11852339 595.61914373 -603.02153015 589.30796814 C-625.78274905 585.14365177 -648.59150571 580.08828837 -670.87744141 573.86035156 C-673.89509641 573.02890385 -676.92037051 572.23007001 -679.94802856 571.43595886 C-699.44205037 566.29670105 -717.73896114 559.90930792 -736.01342773 551.37744141 C-739.43445212 549.7996257 -742.89680985 548.33731819 -746.38549805 546.91601562 C-748 546 -748 546 -749.1875 543.375 C-749 541 -749 541 -747 539 C-744.82714844 538.90893555 -744.82714844 538.90893555 -742.109375 539.13671875 C-740.57603516 539.26143555 -740.57603516 539.26143555 -739.01171875 539.38867188 C-737.39716797 539.5365918 -737.39716797 539.5365918 -735.75 539.6875 C-734.75097656 539.76677734 -733.75195312 539.84605469 -732.72265625 539.92773438 C-713.48420411 541.5723499 -694.54514961 544.85162922 -675.625 548.625 C-674.52493622 548.84209625 -673.42487244 549.0591925 -672.29147339 549.28286743 C-655.85929067 552.52695444 -639.5060528 556.04595809 -623.18652344 559.81274414 C-613.04461624 562.14498087 -602.88114993 564.22447597 -592.65197754 566.13601685 C-557.5145927 572.71733022 -523.408789 582.76797122 -490.73950195 597.296875 C-463.06075949 609.59200958 -433.69594293 618.26037685 -404.35766602 625.66845703 C-398.23016451 627.24886482 -392.71475225 629.27250461 -387 632 C-387 628.7 -387 625.4 -387 622 C-386.01 621.67 -385.02 621.34 -384 621 C-384 620.34 -384 619.68 -384 619 C-385.98 618.67 -387.96 618.34 -390 618 C-389.76143563 614.1829701 -388.42020584 612.04513813 -386.125 609.125 C-382.25497673 604.18513856 -379.40664724 599.52688038 -380 593 C-381.4540625 592.3503125 -381.4540625 592.3503125 -382.9375 591.6875 C-386 590 -386 590 -387 587 C-383.7 587.33 -380.4 587.66 -377 588 C-376.34 584.37 -375.68 580.74 -375 577 C-376.65 576.67 -378.3 576.34 -380 576 C-382.44967679 574.82017501 -384.67088852 573.41573443 -387 572 C-387 571.01 -387 570.02 -387 569 C-382.13103697 569.59619955 -377.67209049 570.56976822 -373 572 C-372.87882812 571.26394531 -372.75765625 570.52789063 -372.6328125 569.76953125 C-372.46523438 568.79371094 -372.29765625 567.81789063 -372.125 566.8125 C-371.96257812 565.84957031 -371.80015625 564.88664063 -371.6328125 563.89453125 C-371.01960483 561.08967396 -370.14333657 558.62775253 -369 556 C-364.125 556.875 -364.125 556.875 -363 558 C-363.09002398 560.02408755 -363.24641038 562.04544287 -363.4375 564.0625 C-363.53933594 565.16722656 -363.64117188 566.27195312 -363.74609375 567.41015625 C-363.82988281 568.26480469 -363.91367187 569.11945312 -364 570 C-362.948125 569.505 -361.89625 569.01 -360.8125 568.5 C-357.74547391 567.17220212 -355.37865064 566.69284994 -352 567 C-351.67 567.66 -351.34 568.32 -351 569 C-355.049191 573.83290538 -358.96719209 575.3833652 -365 577 C-364.98839844 577.60328125 -364.97679687 578.2065625 -364.96484375 578.828125 C-364.95130859 580.02695313 -364.95130859 580.02695313 -364.9375 581.25 C-364.92589844 582.03890625 -364.91429687 582.8278125 -364.90234375 583.640625 C-364.99614694 585.90691002 -365.36758937 587.8288895 -366 590 C-359.35677557 588.51587539 -354.55675458 586.24416448 -349.12109375 582.19921875 C-345.10199243 579.36723622 -340.91588169 576.87983672 -336.6875 574.375 C-330.57067808 570.74739031 -324.49374294 567.07384486 -318.47631836 563.28344727 C-298.78816342 550.907116 -278.2649423 540.00873883 -257.60791016 529.35253906 C-254.38389551 527.68047006 -251.17635644 525.97853937 -247.96972656 524.2734375 C-243.99036016 522.16200646 -239.99660924 520.07856841 -236 518 C-235.05914551 517.50918945 -234.11829102 517.01837891 -233.14892578 516.51269531 C-202.50110475 500.60655053 -170.91510652 487.56094477 -137.3515625 479.19140625 C-136.67358297 479.02189201 -135.99560345 478.85237778 -135.29707909 478.67772675 C-118.57659648 474.51392592 -101.70719856 471.11995194 -84.8125 467.75 C-79.58550076 466.70643295 -74.35961576 465.65768684 -69.13574791 464.59854889 C-67.09812296 464.18772075 -65.05905037 463.78481729 -63.01972961 463.38250732 C-47.72512355 460.7112766 -47.72512355 460.7112766 -34 454 C-31.89022425 450.24999789 -31.69419225 446.76937765 -31.54516602 442.51782227 C-31.46964256 440.56813286 -31.46964256 440.56813286 -31.39259338 438.57905579 C-31.34633621 437.15817352 -31.30010798 435.73729032 -31.25390625 434.31640625 C-31.19874941 432.83498084 -31.14261302 431.35359161 -31.08555603 429.87223816 C-30.96567297 426.73141328 -30.85039084 423.59047006 -30.73876953 420.44934082 C-30.44772793 412.30502148 -30.11877885 404.1622025 -29.78515625 396.01953125 C-29.73630468 394.82184931 -29.73630468 394.82184931 -29.68646622 393.59997177 C-29.1808912 381.29803774 -28.53897027 369.02013334 -27.5 356.75 C-27.40782196 355.65486084 -27.40782196 355.65486084 -27.31378174 354.53759766 C-26.90051315 349.68937371 -26.45643346 344.84432915 -26 340 C-22.55597821 303.35124511 -21.20447241 266.72005896 -20.24375057 229.9297533 C-19.16992374 188.81289082 -17.72795252 147.72921253 -14.91796875 106.6875 C-14.87205093 106.01417885 -14.82613312 105.3408577 -14.77882385 104.64713287 C-14.29717782 97.59613033 -13.79930691 90.54663003 -13.27001953 83.49902344 C-12.11134092 67.64178145 -11.7756467 51.89778212 -12 36 C-12.61875 36.825 -13.2375 37.65 -13.875 38.5 C-14.57625 39.325 -15.2775 40.15 -16 41 C-16.66 41 -17.32 41 -18 41 C-18.24621094 41.57492188 -18.49242187 42.14984375 -18.74609375 42.7421875 C-20.19793053 45.35639827 -21.90287549 47.06336208 -24.0625 49.125 C-26.91571933 51.77905 -26.91571933 51.77905 -29 55 C-29.66 55 -30.32 55 -31 55 C-31.33 55.99 -31.66 56.98 -32 58 C-32.66 58 -33.32 58 -34 58 C-34.33 58.99 -34.66 59.98 -35 61 C-36.53125 62.5078125 -36.53125 62.5078125 -38.5 64.125 C-41.60043476 66.74632673 -44.48531284 69.46121431 -47.3125 72.375 C-51.38986044 76.50840663 -55.73910235 80.14128188 -60.26953125 83.765625 C-62.81300169 85.84697706 -65.21957253 88.01201315 -67.625 90.25 C-120.47844272 138.18490467 -202.33418835 169.9476892 -273.69921875 170.1328125 C-276 170 -276 170 -277 169 C-277.04063832 167.33382885 -277.042721 165.66611905 -277 164 C-276.19183838 163.74420166 -275.38367676 163.48840332 -274.55102539 163.22485352 C-251.46667313 155.89889683 -228.56459839 148.23523107 -206.12890625 139.078125 C-202.48443228 137.59104883 -198.82466127 136.15127701 -195.15234375 134.734375 C-180.37409235 128.99828837 -166.10949097 122.47651512 -151.90820312 115.43652344 C-149.4520778 114.22330639 -146.98834551 113.03041763 -144.515625 111.8515625 C-118.73225227 99.46964439 -96.22750325 83.05460922 -75 64 C-74.11441406 63.21367187 -73.22882812 62.42734375 -72.31640625 61.6171875 C-69.86309404 59.42687036 -67.42856636 57.21771408 -65 55 C-64.50290527 54.54802246 -64.00581055 54.09604492 -63.49365234 53.63037109 C-52.13047775 43.28922618 -41.26918808 32.70655413 -31.41015625 20.8984375 C-12.27062128 -1.98268566 -12.27062128 -1.98268566 0 0 Z M-340 627 C-341.93669916 627.90104482 -341.93669916 627.90104482 -344.03515625 629.31640625 C-344.84533203 629.83396484 -345.65550781 630.35152344 -346.49023438 630.88476562 C-347.33908203 631.43841797 -348.18792969 631.99207031 -349.0625 632.5625 C-349.88427734 633.08908203 -350.70605469 633.61566406 -351.55273438 634.15820312 C-357.07699145 637.70920079 -362.54620585 641.34193726 -368 645 C-367.67 646.32 -367.34 647.64 -367 649 C-366.16339844 648.32195313 -365.32679688 647.64390625 -364.46484375 646.9453125 C-355.95201298 640.11553777 -347.16685769 633.91865742 -338 628 C-338.66 627.67 -339.32 627.34 -340 627 Z " fill="#000000" transform="translate(929,173)"/>
<path d="M0 0 C1.20285645 0.0815332 2.40571289 0.16306641 3.64501953 0.24707031 C4.29809586 0.2886879 4.95117218 0.33030548 5.6240387 0.3731842 C7.75956427 0.51261845 9.89354226 0.66804253 12.02783203 0.82519531 C13.50314875 0.92801344 14.97849074 1.0304696 16.45385742 1.13256836 C20.68815793 1.43036859 24.92039469 1.75204052 29.15283203 2.07519531 C30.16490723 2.14754395 31.17698242 2.21989258 32.21972656 2.29443359 C77.86033365 5.61452241 119.8793327 24.62579482 159.43945312 46.6574707 C201.42349193 69.9905526 260.35202191 91.63501696 308.15283203 78.07519531 C309.76931641 77.63046875 309.76931641 77.63046875 311.41845703 77.17675781 C313.22607385 76.67793459 315.03340395 76.17807018 316.84033203 75.67675781 C325.01904553 73.54918707 331.97729602 73.79046806 339.46533203 77.88769531 C346.206462 83.37466156 348.3122921 89.49043203 349.84033203 97.82519531 C350.76704448 107.27999365 350.22479559 116.84785837 349.15283203 126.26269531 C348.96587769 127.93477051 348.96587769 127.93477051 348.77514648 129.640625 C347.19933104 142.85024901 344.95884942 155.95808042 342.8059082 169.08325195 C340.29200955 184.44621951 338.05320124 199.81203972 336.15283203 215.26269531 C333.28332732 238.53955333 329.98363044 261.74362134 326.51176453 284.9380188 C325.71562302 290.25959229 324.93397346 295.58213198 324.19497681 300.91194153 C319.53457669 334.40834234 310.60388511 367.29103939 299.15283203 399.07519531 C298.7205127 400.28079102 298.28819336 401.48638672 297.84277344 402.72851562 C296.1139644 407.54780147 294.38514126 412.36704361 292.64331055 417.18164062 C289.09938674 427.0406447 286.00893305 436.99757058 283.15283203 447.07519531 C283.8443335 447.06576904 284.53583496 447.05634277 285.24829102 447.04663086 C293.59859082 446.98402253 301.8834801 447.35516124 310.21533203 447.88769531 C312.1421582 447.99307617 312.1421582 447.99307617 314.10791016 448.10058594 C324.49017419 448.76238247 333.71889807 450.6726928 343.15283203 455.07519531 C341.24878914 460.2006131 337.33154547 461.46245813 332.62158203 463.68847656 C326.92011961 465.96777742 321.19858537 467.10194504 315.15283203 468.07519531 C313.96431641 468.28015625 312.77580078 468.48511719 311.55126953 468.69628906 C299.4509757 470.51258576 287.35854479 470.27393563 275.15283203 470.07519531 C274.9761499 470.67195068 274.79946777 471.26870605 274.61743164 471.88354492 C273.21082347 476.39834035 271.94724477 480.07467348 268.71533203 483.63769531 C267.85101562 484.62962891 267.85101562 484.62962891 266.96923828 485.64160156 C265.15283203 487.07519531 265.15283203 487.07519531 261.15283203 487.07519531 C257.97934973 481.4448235 256.08498633 476.61552125 256.15283203 470.07519531 C256.48283203 469.41519531 256.81283203 468.75519531 257.15283203 468.07519531 C256.40114746 467.96038818 255.64946289 467.84558105 254.875 467.72729492 C235.3989889 464.7138864 216.27566956 460.87762701 197.15283203 456.07519531 C196.25381165 455.85049561 195.35479126 455.6257959 194.42852783 455.39428711 C168.02296721 448.79026443 141.85473623 441.7736167 115.97998047 433.31884766 C109.9934877 431.36659907 103.98006996 429.50076017 97.96533203 427.63769531 C96.81822754 427.28231689 95.67112305 426.92693848 94.48925781 426.56079102 C45.12260569 411.17494495 45.12260569 411.17494495 -5.15966797 399.26269531 C-6.21679993 399.05040787 -6.21679993 399.05040787 -7.29528809 398.83383179 C-31.19395497 394.08022904 -55.53123787 392.28346988 -79.78588867 390.34838867 C-138.6572898 385.6169062 -138.6572898 385.6169062 -154.90966797 368.07519531 C-160.54116571 361.42630231 -161.85024659 353.98256334 -161.49560547 345.51269531 C-159.37779519 322.17284424 -148.23544163 298.00988295 -140.59121704 276.00991821 C-138.49476588 269.96932797 -136.43519939 263.91723814 -134.39794922 257.85644531 C-127.01801693 235.93259245 -119.20116786 214.20449878 -111.04032898 192.55950928 C-108.4143376 185.59375393 -105.81273212 178.61915172 -103.21826172 171.64160156 C-89.74959671 135.45781842 -89.74959671 135.45781842 -82.61767578 118.27490234 C-78.85007362 109.18224763 -75.3651456 99.9930979 -71.90673828 90.77905273 C-68.93202882 82.87328856 -65.83780935 75.02613882 -62.65966797 67.20019531 C-58.69902654 57.41872861 -55.13890608 47.54238452 -51.73388672 37.55566406 C-49.62946996 31.39327589 -47.38088648 25.28750616 -45.10424805 19.18701172 C-44.83636475 18.46819824 -44.56848145 17.74938477 -44.29248047 17.00878906 C-44.04143555 16.33831543 -43.79039062 15.6678418 -43.53173828 14.97705078 C-42.89431116 13.20616732 -42.3323518 11.40861889 -41.77685547 9.61035156 C-40.84716797 7.07519531 -40.84716797 7.07519531 -38.84716797 6.07519531 C-38.18716797 6.07519531 -37.52716797 6.07519531 -36.84716797 6.07519531 C-34.84716797 8.07519531 -34.84716797 8.07519531 -34.69482422 10.82910156 C-35.26772202 20.9850171 -36.56485944 31.01459673 -38.03466797 41.07519531 C-38.21843994 42.37142822 -38.40221191 43.66766113 -38.59155273 45.00317383 C-41.93153138 67.47391361 -48.47346201 89.01739202 -55.65966797 110.51269531 C-56.4242246 112.82815857 -57.18789793 115.14391367 -57.95068359 117.45996094 C-65.49693276 140.31003921 -73.34341342 163.04001406 -81.78466797 185.57519531 C-82.48570218 187.455415 -83.18654554 189.33570585 -83.88720703 191.21606445 C-87.16770769 200.0062043 -90.48955923 208.77600861 -93.91870117 217.50927734 C-98.74197321 229.80177633 -102.98264433 242.23783174 -107.1015625 254.77905273 C-110.62591474 265.49682516 -114.30734882 276.15024571 -118.07351685 286.78530884 C-122.79647443 300.13395526 -127.39355574 313.51044415 -131.65966797 327.01269531 C-131.87085266 327.6720105 -132.08203735 328.33132568 -132.29962158 329.01062012 C-135.74592576 339.34504386 -135.74592576 339.34504386 -136.84716797 350.07519531 C-133.81107588 354.39086645 -130.38254788 356.01761758 -125.47216797 357.70019531 C-124.39193359 358.08433594 -123.31169922 358.46847656 -122.19873047 358.86425781 C-108.55120117 362.88861544 -94.63814037 364.00815816 -80.52185059 365.20922852 C-74.49031763 365.7248718 -68.46178074 366.27338953 -62.43310547 366.82128906 C-60.65776428 366.98218521 -60.65776428 366.98218521 -58.84655762 367.14633179 C-9.90484968 371.6165327 36.19184167 383.05948445 83.15283203 397.07519531 C83.85929241 397.28578205 84.56575279 397.49636879 85.29362106 397.71333694 C102.49437295 402.84221599 119.63598597 408.12567748 136.70019531 413.6932373 C196.79947106 434.48553603 196.79947106 434.48553603 259.15283203 443.07519531 C259.30204102 442.49592285 259.45125 441.91665039 259.60498047 441.31982422 C263.18977346 427.58521985 267.37776704 414.18325577 272.15283203 400.82519531 C272.41549866 400.08813354 272.67816528 399.35107178 272.9487915 398.5916748 C275.0223408 392.77490301 277.10109928 386.95997559 279.21630859 381.15820312 C283.75222116 368.67595389 287.10172973 355.94311895 290.34033203 343.07519531 C290.65650482 341.82582184 290.65650482 341.82582184 290.97906494 340.5512085 C296.31676366 319.34933619 299.8756408 298.0382251 302.84033203 276.38769531 C303.18291785 273.91790882 303.52594716 271.44818381 303.86938477 268.97851562 C305.65376727 256.11530506 307.4034317 243.24747306 309.14027405 230.37777138 C309.90252315 224.7301564 310.66598304 219.08270506 311.4299469 213.43532181 C311.62014669 212.02899202 311.81024075 210.62264792 312.00022888 209.21628952 C314.75664986 188.81573426 317.67418246 168.44826025 320.94604492 148.12304688 C324.3411003 127.9580665 324.3411003 127.9580665 325.27783203 107.57519531 C325.26429688 106.32416016 325.26429688 106.32416016 325.25048828 105.04785156 C325.22760299 103.05683156 325.19178189 101.06596584 325.15283203 99.07519531 C324.55446533 99.24647949 323.95609863 99.41776367 323.33959961 99.59423828 C299.77941424 106.29598312 276.55074826 110.2261457 252.15283203 105.07519531 C250.94941162 104.82455322 250.94941162 104.82455322 249.72167969 104.56884766 C224.00078559 99.0960207 197.21540693 91.84770864 173.15283203 81.07519531 C172.30108398 80.69459961 171.44933594 80.31400391 170.57177734 79.921875 C157.69686191 74.09589679 145.36357678 67.50914421 133.11376953 60.47753906 C116.22100489 50.7927668 99.15916241 41.52195408 81.15283203 34.07519531 C80.0600293 33.61935059 78.96722656 33.16350586 77.84130859 32.69384766 C57.35425973 24.22962314 36.55427166 17.79405232 15.15283203 12.07519531 C13.47664795 11.62394287 13.47664795 11.62394287 11.76660156 11.16357422 C6.57027102 9.76728415 1.36829772 8.39821064 -3.84716797 7.07519531 C-4.47216797 4.70019531 -4.47216797 4.70019531 -4.84716797 2.07519531 C-2.84716797 0.07519531 -2.84716797 0.07519531 0 0 Z " fill="#000000" transform="translate(283.84716796875,246.9248046875)"/>
<path d="M0 0 C1.65 0.33 3.3 0.66 5 1 C6.85226819 7.84884994 8.37606713 14.71908378 9.6484375 21.6953125 C9.78936829 22.45994812 9.93029907 23.22458374 10.07550049 24.01239014 C10.65825364 27.18137266 11.23879517 30.35049266 11.796875 33.52392578 C15.32924061 53.50386875 23.2108308 66.86307436 40 79 C56.5990883 90.56689343 76.04086344 96.93808998 94.88525391 103.85449219 C97.97264971 104.98994141 101.05469191 106.1391331 104.13671875 107.2890625 C114.47783507 111.11401805 124.85768074 114.66894852 135.4375 117.77734375 C136.59316971 118.1182605 137.74883942 118.45917725 138.93952942 118.8104248 C153.71021048 123.13188877 168.58853317 127.06189051 183.46508789 131 C205.50389521 136.84391499 227.36739962 143.01848447 248.20703125 152.38671875 C249.11791504 152.79583496 250.02879883 153.20495117 250.96728516 153.62646484 C254.42146763 155.19088528 257.87321665 156.76061212 261.32421875 158.33203125 C263.96590928 159.53437481 266.60790696 160.73604126 269.25 161.9375 C270.24321762 162.38977966 270.24321762 162.38977966 271.25650024 162.85119629 C283.11066936 168.24163709 295.11615047 173.15510621 307.23828125 177.91357422 C318.45602667 182.32649564 329.40456779 187.03519015 340.125 192.5625 C340.97803711 192.99747803 341.83107422 193.43245605 342.70996094 193.88061523 C351.13161095 198.3222497 359.66122026 203.91501342 365 212 C365.875 214.9375 365.875 214.9375 366 217 C353.82412131 221.6937504 341.47479223 217.02272088 329.8125 212.8125 C328.28140505 212.27202151 326.75015131 211.73199265 325.21875 211.19238281 C301.55058893 202.78503518 278.43777863 193.26312948 255.64672852 182.71911621 C238.66988394 174.86725518 221.70679817 167.49974672 203.71875 162.24609375 C201.98522278 161.73622169 201.98522278 161.73622169 200.2166748 161.21604919 C191.35279296 158.63267295 182.45213026 156.19397052 173.53125 153.81640625 C172.87684937 153.64197872 172.22244873 153.46755119 171.54821777 153.28783798 C165.5245484 151.68395483 159.49891861 150.0875425 153.47021484 148.50268555 C129.86721214 142.29157689 106.50834443 135.396407 83.875 126.1875 C83.26843567 125.94253784 82.66187134 125.69757568 82.03692627 125.44519043 C46.16990902 110.92915696 46.16990902 110.92915696 32 100 C31.10023438 99.31808594 30.20046875 98.63617187 29.2734375 97.93359375 C13.92038818 85.84577042 0.64839753 72.22476149 -2 52 C-2.1552796 48.266996 -2.16393809 44.53665937 -2.16796875 40.80078125 C-2.17129715 39.72877975 -2.17462555 38.65677826 -2.17805481 37.55229187 C-2.18310388 35.2938988 -2.18546376 33.03549832 -2.18530273 30.77709961 C-2.18749894 27.31416714 -2.20570265 23.85154845 -2.22460938 20.38867188 C-2.22754172 18.19270942 -2.22952758 15.99674546 -2.23046875 13.80078125 C-2.23765427 12.76327225 -2.24483978 11.72576324 -2.25224304 10.65681458 C-2.24916641 9.69539047 -2.24608978 8.73396637 -2.24291992 7.7434082 C-2.24434494 6.89768753 -2.24576996 6.05196686 -2.24723816 5.18061829 C-2 3 -2 3 0 0 Z " fill="#000000" transform="translate(136,648)"/>
<path d="M0 0 C0.95526581 -0.00100708 1.91053162 -0.00201416 2.89474487 -0.00305176 C21.82602783 0.01030655 40.50672352 1.12227942 59.3125 3.25 C61.05345947 3.44287598 61.05345947 3.44287598 62.82958984 3.63964844 C97.94653496 7.71493544 132.42817202 17.47228821 166.3125 27.25 C167.03860474 27.45923096 167.76470947 27.66846191 168.51281738 27.8840332 C177.81181987 30.56846723 187.07961833 33.34527318 196.3125 36.25 C197.76487061 36.70536133 197.76487061 36.70536133 199.24658203 37.16992188 C208.37997723 40.07475237 217.14717493 43.37824424 225.6875 47.75 C226.71387573 48.26530273 226.71387573 48.26530273 227.76098633 48.79101562 C232.53812494 51.37008432 236.40694825 54.60165428 239.3125 59.25 C239.4375 62.5 239.4375 62.5 238.3125 65.25 C234.99095813 68.54804039 232.26745084 68.68251095 227.6875 68.6875 C213.9614007 68.47028845 201.48539888 64.38042656 188.625 59.9375 C154.02724495 48.03632825 118.17597156 38.92455821 82.32574463 31.65893555 C80.27533215 31.24245037 78.22621089 30.82002991 76.17724609 30.39648438 C57.58482153 26.56590567 39.01041486 23.36132107 20.08984375 21.6875 C2.64636343 20.12388921 -14.61766164 17.77409422 -31.9375 15.1875 C-33.14553284 15.0097403 -34.35356567 14.83198059 -35.59820557 14.64883423 C-39.051345 14.1385986 -42.50243737 13.6163772 -45.953125 13.08984375 C-47.00694366 12.93468292 -48.06076233 12.77952209 -49.14651489 12.61965942 C-50.11169037 12.46923187 -51.07686584 12.31880432 -52.07128906 12.16381836 C-53.34120697 11.9708744 -53.34120697 11.9708744 -54.63677979 11.77403259 C-56.6875 11.25 -56.6875 11.25 -58.6875 9.25 C-58.3125 6.625 -58.3125 6.625 -57.6875 4.25 C-54.33461855 3.76156462 -50.9800034 3.28612162 -47.625 2.8125 C-46.23958008 2.61043945 -46.23958008 2.61043945 -44.82617188 2.40429688 C-29.91933634 0.31835743 -15.02503354 0.01109979 0 0 Z " fill="#000000" transform="translate(248.6875,674.75)"/>
<path d="M0 0 C1.51242852 -0.00909292 3.02483816 -0.02296159 4.53717041 -0.04229736 C26.04001268 -0.28475302 45.97708205 3.82870338 66.56973267 9.73605347 C88.90859903 16.08276689 110.83002415 21.24188387 134.06192017 22.65011597 C144.72670588 23.33231896 154.92814122 24.54110741 165.31973267 27.11105347 C166.28733521 27.34727417 167.25493774 27.58349487 168.25186157 27.82687378 C177.50191153 30.26676532 185.8343462 33.25699954 191.44473267 41.29855347 C187.00165958 46.26434104 183.55154436 48.0725415 176.88735962 48.55734253 C174.9299585 48.56072632 174.9299585 48.56072632 172.93301392 48.56417847 C171.85681038 48.5684082 171.85681038 48.5684082 170.75886536 48.57272339 C168.42478649 48.57698875 166.09125665 48.56439472 163.75723267 48.54855347 C162.95672485 48.54545166 162.15621704 48.54234985 161.33145142 48.53915405 C139.7791853 48.44140404 118.43794724 47.55336058 97.44473267 42.29855347 C96.68257446 42.10841675 95.92041626 41.91828003 95.13516235 41.72238159 C79.63114764 37.7469932 64.49674419 32.40832538 49.33926392 27.29855347 C48.61147232 27.05370209 47.88368073 26.80885071 47.13383484 26.55657959 C43.32913676 25.27560203 39.52816469 23.98479215 35.7315979 22.67990112 C27.52125177 19.8737822 19.42525337 17.28918878 10.88223267 15.67355347 C9.87281616 15.47463501 8.86339966 15.27571655 7.82339478 15.07077026 C-3.01094514 13.03755744 -13.9571539 11.7970324 -24.91488647 10.64181519 C-25.60764679 10.56592667 -26.3004071 10.49003815 -27.01416016 10.41184998 C-28.90724047 10.20539418 -30.8014207 10.00909691 -32.69564819 9.81344604 C-35.55526733 9.29855347 -35.55526733 9.29855347 -37.55526733 7.29855347 C-37.01955305 3.76283918 -37.01955305 3.76283918 -35.55526733 2.29855347 C-23.8045045 0.33770754 -11.88773974 0.0690223 0 0 Z " fill="#000000" transform="translate(299.5552673339844,514.7014465332031)"/>
<path d="M0 0 C5.33596637 0.28929938 9.74664737 2.51312818 14.5 4.75 C26.85665382 10.54915161 39.07219136 14.48542589 52.47442627 16.85513306 C66.98217396 19.44367311 80.56943778 23.0821549 94.4453125 28.08203125 C103.17255738 31.16482221 111.32397952 32.28680529 120.55688477 32.93554688 C143.50616187 34.54904399 164.7062147 39.3936017 186.5625 46.5 C187.27036652 46.7271167 187.97823303 46.9542334 188.70755005 47.18823242 C199.76357407 50.76694165 210.3400433 54.86641882 217 65 C217 65.66 217 66.32 217 67 C204.40139029 72.30467777 190.92253672 70.06442926 177.8125 67.8125 C176.43727239 67.58453567 175.06202799 67.35667259 173.68676758 67.12890625 C165.64999317 65.77144518 157.78965255 64.05042242 149.93359375 61.8762207 C141.67652469 59.70263879 133.25622414 58.66000333 124.8125 57.5 C113.19131974 55.8909376 102.05932273 54.03482983 91 50 C89.78570312 49.57203125 88.57140625 49.1440625 87.3203125 48.703125 C77.78552699 45.27055308 68.40817177 41.39298277 59.01000977 37.60717773 C53.67532715 35.45892067 48.33469374 33.36025206 42.9375 31.375 C29.76128804 26.30180609 18.15855852 19.46731488 6.73339844 11.22412109 C5.05036752 10.0355694 3.33549667 8.91714913 1.6015625 7.8046875 C-1 6 -1 6 -2 3.875 C-2 2 -2 2 0 0 Z " fill="#000000" transform="translate(312,375)"/>
<path d="M0 0 C0.78052734 -0.00773438 1.56105469 -0.01546875 2.36523438 -0.0234375 C6.63106914 -0.00896478 9.9226399 0.28558168 13.8125 2.25 C13.8125 2.91 13.8125 3.57 13.8125 4.25 C12.843125 4.20359375 11.87375 4.1571875 10.875 4.109375 C-7.04454392 3.51581832 -21.66836595 7.77776963 -35.5625 19.625 C-40.87609029 24.66434047 -45.58069727 29.60918364 -46.8125 37 C-46.07818887 40.81841785 -44.96131569 42.55543618 -42.1875 45.25 C-39.3839229 46.1845257 -37.79039353 46.35890647 -34.90307617 46.31591797 C-34.04175583 46.30615936 -33.18043549 46.29640076 -32.29301453 46.28634644 C-30.90080437 46.26448776 -30.90080437 46.26448776 -29.48046875 46.2421875 C-27.51237499 46.22466649 -25.54427569 46.20775866 -23.57617188 46.19140625 C-20.47534882 46.16047902 -17.37480245 46.12499704 -14.27416992 46.07861328 C-11.2804015 46.03616877 -8.28695656 46.01280075 -5.29296875 45.9921875 C-4.37090134 45.97356659 -3.44883392 45.95494568 -2.49882507 45.9357605 C2.65740525 45.91530625 6.4268579 46.2021346 10.8125 49.25 C12.12295299 53.18135898 12.33014622 55.19005775 10.5 58.9375 C-0.7008515 68.57544199 -17.97682769 67.69492613 -31.93823242 68.27905273 C-44.38470056 68.64258714 -44.38470056 68.64258714 -56.1875 72.25 C-56.6825 73.24 -56.6825 73.24 -57.1875 74.25 C-40.04641004 81.71466821 -19.79859722 73.99837086 -2.8125 69.3125 C16.92556897 63.87116805 35.19305587 59.40165716 55.8125 60.25 C55.3175 59.13625 55.3175 59.13625 54.8125 58 C53.8125 55.25 53.8125 55.25 53.8125 51.25 C50.60602592 51.97774657 50.60602592 51.97774657 49.0625 54.875 C46.8125 57.25 46.8125 57.25 43.3125 57.4375 C39.8125 56.25 39.8125 56.25 37.3125 53.4375 C35.8125 50.25 35.8125 50.25 36.0625 47.875 C36.43375 47.070625 36.43375 47.070625 36.8125 46.25 C37.575625 47.054375 38.33875 47.85875 39.125 48.6875 C41.60680898 51.41799024 41.60680898 51.41799024 44.8125 52.25 C45.245625 51.445625 45.67875 50.64125 46.125 49.8125 C47.8125 47.25 47.8125 47.25 50.8125 46.25 C50.79678955 45.6202124 50.7810791 44.9904248 50.76489258 44.34155273 C50.70209768 41.45696175 50.66336942 38.57251514 50.625 35.6875 C50.59986328 34.69685547 50.57472656 33.70621094 50.54882812 32.68554688 C50.4898345 26.76651995 50.80348483 22.41642227 53.8125 17.25 C56.5 16.3125 56.5 16.3125 58.8125 16.25 C60.66887778 19.96275556 59.99725052 24.41427962 60 28.5 C60.01224609 29.44230469 60.02449219 30.38460937 60.03710938 31.35546875 C60.0478436 36.45780598 59.63890443 40.42829232 57.8125 45.25 C57.61130353 50.46194661 59.18897447 54.76814389 61.8125 59.25 C64.10501856 61.54251856 68.64434926 61.14203174 71.7109375 61.39453125 C76.44544984 61.17390536 78.40642039 59.42384691 81.8125 56.25 C81.1525 55.92 80.4925 55.59 79.8125 55.25 C79.8125 54.26 79.8125 53.27 79.8125 52.25 C82.23751634 52.72153095 84.62357261 53.19602074 87 53.875 C88.90153493 54.46346359 88.90153493 54.46346359 90.8125 53.25 C90.1525 52.87875 89.4925 52.5075 88.8125 52.125 C86.8125 50.25 86.8125 50.25 86.3125 47.3125 C86.8125 44.25 86.8125 44.25 88.5625 41.8125 C90.8125 40.25 90.8125 40.25 93 40.4375 C94.8125 41.25 94.8125 41.25 95.8125 42.25 C96 45.1875 96 45.1875 95.8125 48.25 C94.8225 49.24 94.8225 49.24 93.8125 50.25 C93.8125 51.24 93.8125 52.23 93.8125 53.25 C95.87652968 52.76294288 95.87652968 52.76294288 97.8125 51.25 C98.48334112 47.80420959 98.48334112 47.80420959 98.8125 44.25 C100.8125 41.25 100.8125 41.25 104.1875 40.3125 C107.8125 40.25 107.8125 40.25 110.0625 42.125 C110.64 42.82625 111.2175 43.5275 111.8125 44.25 C112.8025 44.58 113.7925 44.91 114.8125 45.25 C114.25364008 40.76734125 114.25364008 40.76734125 113.2890625 36.36328125 C112.703796 33.76796013 112.64309022 31.34676223 112.625 28.6875 C112.61082031 27.73746094 112.59664062 26.78742187 112.58203125 25.80859375 C112.8125 23.25 112.8125 23.25 114.8125 20.25 C116.1325 20.25 117.4525 20.25 118.8125 20.25 C120.82920288 27.68659188 121.0262731 34.56604457 120.8125 42.25 C125.2675 41.755 125.2675 41.755 129.8125 41.25 C131.76698191 43.98627468 132.8463568 45.52207886 132.6875 48.9375 C131.8125 51.25 131.8125 51.25 128.8125 53.25 C129.1425 54.57 129.4725 55.89 129.8125 57.25 C125.09775636 58.65407844 120.43014748 59.79102886 115.59375 60.72265625 C114.93217896 60.85063095 114.27060791 60.97860565 113.58898926 61.11045837 C112.20105059 61.37826471 110.81282135 61.64456918 109.42431641 61.90942383 C107.31730694 62.31158251 105.2113403 62.71888223 103.10546875 63.12695312 C86.24036082 66.37291189 86.24036082 66.37291189 80.61328125 66.3828125 C79.8852832 66.38474609 79.15728516 66.38667969 78.40722656 66.38867188 C77.6540918 66.38416016 76.90095703 66.37964844 76.125 66.375 C74.93535645 66.37209961 74.93535645 66.37209961 73.72167969 66.36914062 C69.31033064 66.33690178 64.9574785 66.16406258 60.5625 65.75 C35.04668711 63.37318455 11.06423581 70.89658291 -13.35498047 77.42358398 C-45.21194686 85.92202242 -45.21194686 85.92202242 -59.1875 79.25 C-61.36671715 77.41926126 -62.08606353 76.6782873 -62.75 73.875 C-62.05299773 70.62232276 -60.58310051 69.27493371 -57.94921875 67.31640625 C-50.36330863 62.7244917 -39.90973048 63.21680116 -31.29711914 62.95947266 C-18.72397992 62.57108714 -5.60824037 62.05327984 5.8125 56.25 C6.1425 55.26 6.4725 54.27 6.8125 53.25 C3.13528598 50.9124745 -0.02411019 51.01406849 -4.3125 51.0625 C-4.98410156 51.06894531 -5.65570313 51.07539062 -6.34765625 51.08203125 C-9.98729033 51.13791815 -13.57283969 51.33011522 -17.1875 51.75 C-36.79603757 53.97973337 -36.79603757 53.97973337 -45.1875 49.25 C-49.01100031 46.06655701 -50.89117398 43.20136248 -52.375 38.4375 C-52.73601032 31.78459558 -48.56497403 25.7531809 -44.625 20.6875 C-32.9444016 8.02107104 -17.24490043 -0.17346086 0 0 Z M54.8125 26.25 C54.8125 29.55 54.8125 32.85 54.8125 36.25 C55.1425 36.25 55.4725 36.25 55.8125 36.25 C55.8125 32.95 55.8125 29.65 55.8125 26.25 C55.4825 26.25 55.1525 26.25 54.8125 26.25 Z M91.8125 45.25 C91.8125 48.25 91.8125 48.25 91.8125 48.25 Z M101.8125 45.25 C102.8125 48.25 102.8125 48.25 102.8125 48.25 Z M106.8125 47.25 C106.1525 48.9 105.4925 50.55 104.8125 52.25 C106.62575551 52.13648483 108.43813357 52.00887039 110.25 51.875 C111.25933594 51.80539062 112.26867187 51.73578125 113.30859375 51.6640625 C114.54802734 51.45910156 114.54802734 51.45910156 115.8125 51.25 C116.1425 50.59 116.4725 49.93 116.8125 49.25 C115.719375 49.105625 114.62625 48.96125 113.5 48.8125 C109.8125 48.25 109.8125 48.25 106.8125 47.25 Z M84.8125 60.25 C84.8125 60.58 84.8125 60.91 84.8125 61.25 C92.99338206 60.7033512 100.83035939 59.07876132 108.8125 57.25 C108.8125 56.92 108.8125 56.59 108.8125 56.25 C100.22411947 55.53759977 92.9043269 57.63822878 84.8125 60.25 Z " fill="#000000" transform="translate(464.1875,904.75)"/>
<path d="M0 0 C1.76710649 -0.00803521 3.53420258 -0.01903189 5.30126953 -0.0333252 C21.77527354 -0.15275345 38.44200951 0.3415787 54.38549805 4.86273193 C55.8080188 5.25247192 55.8080188 5.25247192 57.25927734 5.65008545 C90.09842442 14.88498132 90.09842442 14.88498132 99.82299805 28.17523193 C84.2908512 33.12194081 67.9000664 29.04885916 52.26049805 26.36273193 C47.98934235 25.64196429 43.71697335 24.92865959 39.4440918 24.21820068 C38.39001129 24.04183578 37.33593079 23.86547089 36.24990845 23.6837616 C29.1716493 22.51520449 22.08569736 21.51922944 14.9675293 20.62835693 C5.40937704 19.42990225 -4.05754126 17.91957603 -13.53100586 16.17791748 C-15.94182654 15.7350084 -18.35415449 15.30118329 -20.7668457 14.86859131 C-31.94956411 12.8477759 -43.06852514 10.56887018 -54.17700195 8.17523193 C-54.80200195 5.80023193 -54.80200195 5.80023193 -55.17700195 3.17523193 C-52.44341962 0.4416496 -50.85353778 0.8661994 -47.02075195 0.76116943 C-45.70864746 0.72225586 -44.39654297 0.68334229 -43.04467773 0.64324951 C-41.58880322 0.61143649 -40.13291033 0.5804557 -38.67700195 0.55023193 C-37.16772295 0.5134348 -35.65844564 0.4765681 -34.14916992 0.43963623 C-22.7681644 0.17967752 -11.38376716 0.04833925 0 0 Z " fill="#000000" transform="translate(409.177001953125,479.82476806640625)"/>
<path d="M0 0 C1.28487305 0.02030273 1.28487305 0.02030273 2.59570312 0.04101562 C4.66825287 0.0757511 6.74047007 0.12952611 8.8125 0.1875 C7.9840826 6.84984271 3.9137802 10.17116843 -1.1875 14.1875 C-5.56788647 16.94284301 -10.24998108 19.08787957 -14.96777344 21.19482422 C-17.19151672 22.1892963 -19.39553626 23.2208332 -21.6015625 24.25390625 C-42.43681375 33.75526531 -64.67821647 37.39485047 -87.2578125 40.0078125 C-102.70991119 41.85209845 -117.13989247 44.59677466 -131.89282227 49.60839844 C-134.40230139 50.24170884 -136.60959512 50.28900803 -139.1875 50.1875 C-139.5175 48.5375 -139.8475 46.8875 -140.1875 45.1875 C-133.69837601 40.57664719 -127.01053277 36.94194775 -119.8125 33.5625 C-118.84828125 33.0984375 -117.8840625 32.634375 -116.890625 32.15625 C-106.22894323 27.09695329 -95.54115201 23.64661343 -84.12463379 20.69604492 C-79.0747057 19.37031548 -74.05832197 17.91841369 -69.03500366 16.49591064 C-54.1285918 12.27594431 -39.20962648 8.09854171 -24.25854492 4.03930664 C-22.25956595 3.48485576 -20.26687481 2.90703389 -18.2824707 2.30249023 C-12.03990745 0.44073078 -6.50041723 -0.20072547 0 0 Z " fill="#000000" transform="translate(857.1875,345.8125)"/>
<path d="M0 0 C0.82886719 0.2784375 1.65773438 0.556875 2.51171875 0.84375 C3.10597656 1.0603125 3.70023438 1.276875 4.3125 1.5 C4.3125 5.6068312 3.17673167 6.56590902 0.3125 9.5 C-19.21502456 24.40759802 -51.2452292 25.27898001 -74.70239258 28.02856445 C-78.87400415 28.51926241 -83.04281325 29.0313613 -87.2109375 29.55078125 C-88.46696777 29.70716064 -89.72299805 29.86354004 -91.01708984 30.0246582 C-103.79402329 31.67935352 -114.97258524 34.77578412 -126.99584961 39.36352539 C-132.26611335 41.36087446 -137.05575597 43.03667921 -142.6875 43.5 C-143.0175 41.85 -143.3475 40.2 -143.6875 38.5 C-112.05702113 13.90596241 -40.21555125 -13.98801783 0 0 Z " fill="#000000" transform="translate(836.6875,493.5)"/>
<path d="M0 0 C6.19179303 0.49933815 10.93461911 2.58328847 16.5 5.25 C32.32338614 12.56511627 47.96279931 17.2962301 65.42578125 18.4609375 C100.85198497 20.93937342 134.675631 31.72907459 168.24809265 42.78666687 C172.95847222 44.33806303 177.67754729 45.85054003 182.4140625 47.3203125 C200.60395428 52.96754073 217.88787734 60.01012963 235.265625 67.77905273 C244.13325433 71.70698222 253.13249668 75.21841576 262.23486328 78.56396484 C268.49370773 80.89650897 274.27413123 83.55327281 280 87 C280 87.66 280 88.32 280 89 C272.14017357 88.63219973 265.32187096 86.76227534 257.9375 84.125 C256.24826416 83.53150757 256.24826416 83.53150757 254.52490234 82.92602539 C244.43119668 79.30345503 234.67136806 75.03813191 224.8984375 70.63671875 C209.60303983 63.75354158 193.9780909 58.07261787 178 53 C176.92637207 52.65855957 175.85274414 52.31711914 174.74658203 51.96533203 C121.94603044 35.03187044 121.94603044 35.03187044 67.50390625 25.296875 C66.37388184 25.17401123 65.24385742 25.05114746 64.07958984 24.92456055 C61.902823 24.69221959 59.72478756 24.47131535 57.54541016 24.26489258 C43.02282016 22.74758996 30.6983656 18.37883324 17.8125 11.875 C16.51819517 11.2344288 15.22327407 10.59510126 13.92773438 9.95703125 C10.61089725 8.31967057 7.30402598 6.6630834 4 5 C2.66685754 4.33295172 1.33361597 3.66610109 0 3 C0 2.01 0 1.02 0 0 Z " fill="#000000" transform="translate(250,559)"/>
<path d="M0 0 C10.88041112 1.01662743 21.04517401 3.11243103 31.53665161 6.1390686 C44.45654404 9.85992613 57.28372752 13.1847643 70.57958984 15.2902832 C80.23439015 16.90710397 88.68975757 20.56938014 97.1875 25.375 C104.66820273 29.20233628 112.43230156 31.23382379 120.53564453 33.36352539 C127.10053258 35.11078348 133.30560172 37.17732614 139.5625 39.8125 C151.12980293 44.52311424 162.0299861 45.06896949 174.39331055 44.87060547 C186.63038028 44.68320295 197.26045238 45.42959744 209.0390625 48.7109375 C214.10789331 50.10971868 219.16316632 50.80456846 224.375 51.4375 C232.21820915 52.43340413 239.78625875 54.00727402 247.4375 56 C248.40284668 56.24935303 249.36819336 56.49870605 250.36279297 56.75561523 C255.23138546 58.06950606 259.59767916 59.53058463 264 62 C264 62.99 264 63.98 264 65 C258.57876375 65.14002364 253.88550688 64.74449369 248.5625 63.5390625 C247.53769531 63.31311905 247.53769531 63.31311905 246.4921875 63.08261108 C244.32626901 62.60465545 242.1629684 62.11612049 240 61.625 C230.94418204 59.57298357 222.03879751 57.78512358 212.79898071 56.811203 C208.40335963 56.30293417 204.46585195 55.29213006 200.2734375 53.90234375 C190.3836723 50.87432128 180.19769499 51.49948654 169.95507812 51.5847168 C155.05590364 51.66818939 143.73853833 49.14493926 129.875 43.5625 C124.08306526 41.2457261 118.21875088 39.7225878 112.1875 38.1875 C104.46993101 36.1983413 97.51573007 33.75900247 90.5378418 29.89135742 C81.10157434 24.66725939 71.35400947 22.30746439 60.8125 20.375 C48.24221198 17.93922071 36.20313376 14.51631031 24.05004883 10.51513672 C16.10039077 7.90934453 8.18868011 5.72179773 0 4 C0 2.68 0 1.36 0 0 Z " fill="#000000" transform="translate(309,328)"/>
<path d="M0 0 C8.16085041 0.57677112 16.08806764 1.80970027 24.125 3.3125 C26.63646561 3.76832403 29.14818952 4.22272694 31.66015625 4.67578125 C32.90555176 4.90088379 34.15094727 5.12598633 35.43408203 5.35791016 C48.18199089 7.65333671 60.89520741 9.72895441 73.7890625 11.0078125 C96.87757367 13.33204437 118.57347493 17.26453723 140.84521484 23.79394531 C144.68053866 24.91608465 148.53262549 25.9648097 152.39453125 26.9921875 C163.61247932 29.98879612 174.35612006 33.32482828 185 38 C202.46468585 45.61194561 217.43514612 49.43315597 236.51147461 50.75048828 C239.05664553 51.00567956 241.50153818 51.45808405 244 52 C244 52.99 244 53.98 244 55 C232.27311482 60.86344259 213.0183445 56.00802282 201.52539062 52.37597656 C195.51387086 50.34073744 189.78272567 47.72742112 184 45.125 C172.27175159 39.88089683 160.40835101 36.25855959 148 33 C146.74461426 32.66726074 145.48922852 32.33452148 144.19580078 31.99169922 C136.42367531 29.93486049 128.6449136 27.90259496 120.84350586 25.95947266 C118.21850388 25.30418092 115.60222969 24.63277107 112.98657227 23.94287109 C102.88236977 21.34286542 92.94344141 20.14998603 82.56460571 19.24645996 C63.14032707 17.50695303 44.32017149 14.08014297 25.3125 9.75 C24.10767975 9.47575195 22.9028595 9.20150391 21.66152954 8.91894531 C16.25895656 7.68078537 10.8605747 6.42507162 5.4699707 5.13574219 C4.65083694 4.93986511 3.83170319 4.74398804 2.98774719 4.54217529 C1 4 1 4 -1 3 C-0.67 2.01 -0.34 1.02 0 0 Z " fill="#000000" transform="translate(302,431)"/>
<path d="M0 0 C0.91265625 0.02707031 1.8253125 0.05414063 2.765625 0.08203125 C3.42046875 0.11683594 4.0753125 0.15164063 4.75 0.1875 C4.42 1.1775 4.09 2.1675 3.75 3.1875 C1.65917969 4.21923828 1.65917969 4.21923828 -1.078125 5.1328125 C-2.07650391 5.4721582 -3.07488281 5.81150391 -4.10351562 6.16113281 C-5.14185547 6.49983398 -6.18019531 6.83853516 -7.25 7.1875 C-8.21099609 7.5081543 -9.17199219 7.82880859 -10.16210938 8.15917969 C-13.10501595 9.13649565 -16.05229494 10.09976462 -19 11.0625 C-27.05961828 13.71586973 -34.92161697 16.58394495 -42.76171875 19.828125 C-46.48809343 21.28028445 -50.23518853 22.47531407 -54.0625 23.625 C-67.13252836 27.59931671 -79.40437851 32.63943017 -91.5625 38.875 C-101.86082181 44.13259664 -111.72745443 47.37376932 -122.96972656 49.97875977 C-140.52528357 53.78442737 -140.52528357 53.78442737 -155.56640625 63.1484375 C-157.25 64.1875 -157.25 64.1875 -159.46484375 63.8515625 C-160.34849609 63.52285156 -160.34849609 63.52285156 -161.25 63.1875 C-159.23260899 57.13532698 -151.92431223 53.6552978 -146.53125 50.6953125 C-137.84142126 46.58042301 -128.68939401 43.97297607 -119.34838867 41.79223633 C-108.79268065 39.30489177 -99.28301922 35.28414598 -89.64453125 30.31860352 C-75.86568678 23.23494358 -61.44280199 18.05046416 -46.62109375 13.60546875 C-39.97795431 11.52682426 -33.50259682 8.93463059 -27.02416992 6.39672852 C-18.42764438 3.08383681 -9.34216998 -0.36876987 0 0 Z " fill="#000000" transform="translate(876.25,303.8125)"/>
<path d="M0 0 C-1 3 -1 3 -2.60620117 3.99658203 C-10.74394208 7.20292085 -19.16337426 9.18702755 -27.64920044 11.23226929 C-32.15059011 12.31858396 -36.64548993 13.43110395 -41.140625 14.54296875 C-42.01380875 14.75856949 -42.88699249 14.97417023 -43.78663635 15.19630432 C-52.46069337 17.34613197 -61.05746757 19.70741737 -69.61279297 22.2890625 C-72.20528795 23.06113709 -74.80678102 23.79674103 -77.41015625 24.53125 C-88.14265927 27.61537698 -98.34969818 31.30905075 -108.625 35.6875 C-119.08483481 40.09738524 -128.9687602 43.0067702 -140.18994141 44.59521484 C-143.41909073 45.06036945 -146.63620547 45.58409339 -149.85546875 46.11328125 C-155.89930387 47.10430174 -161.94757981 48.06294826 -168 49 C-168.33 47.68 -168.66 46.36 -169 45 C-165.39747061 44.07682004 -161.79295781 43.16167506 -158.1875 42.25 C-157.09759766 41.97414063 -156.00769531 41.69828125 -154.88476562 41.4140625 C-148.28285893 39.7626212 -141.67889876 38.29851912 -135 37 C-123.80183555 34.76271967 -113.64905251 30.63528361 -103.25 26 C-95.49057986 22.64992849 -87.55906018 20.28570731 -79.43505859 17.98242188 C-76.8981339 17.25686502 -74.36530871 16.52160491 -71.83447266 15.77539062 C-53.93197243 10.49722612 -36.03948696 5.51250103 -17.75 1.75 C-17.01690613 1.59725616 -16.28381226 1.44451233 -15.52850342 1.28713989 C-13.47409299 0.86300298 -11.41766177 0.45173562 -9.359375 0.046875 C-8.19889648 -0.18161133 -7.03841797 -0.41009766 -5.84277344 -0.64550781 C-3 -1 -3 -1 0 0 Z " fill="#000000" transform="translate(868,398)"/>
<path d="M0 0 C2.4375 1.625 2.4375 1.625 4 4 C4.0625 7 4.0625 7 3 10 C-9.7823392 21.4934929 -29.81610072 27.62567324 -45.875 33.375 C-46.54770935 33.61969025 -47.2204187 33.86438049 -47.91351318 34.1164856 C-49.83019092 34.80888183 -51.75482509 35.47913129 -53.6796875 36.1484375 C-54.78038574 36.53177246 -55.88108398 36.91510742 -57.01513672 37.31005859 C-60.12535066 38.02897439 -61.96608153 37.88744402 -65 37 C-65.33 35.68 -65.66 34.36 -66 33 C-59.35428188 28.19282038 -52.58721758 23.8296905 -45.4375 19.8125 C-44.46530518 19.26368164 -43.49311035 18.71486328 -42.49145508 18.14941406 C-31.9495023 12.28355058 -21.08918845 7.10052856 -10.15698242 2.00878906 C-6.40941157 0.25610511 -4.24073125 -0.42407312 0 0 Z " fill="#000000" transform="translate(805,570)"/>
<path d="M0 0 C2.86602296 2.14951722 3.79333683 3.74495182 4.375 7.27734375 C4.67348149 13.33092154 3.49386674 18.02750024 0 23 C-2.62752627 25.54790426 -3.30715574 26 -7 26 C-7.33 26.99 -7.66 27.98 -8 29 C-8.99 28.67 -9.98 28.34 -11 28 C-11.07654536 23.48382401 -11.10228696 19.40914783 -10 15 C-9.34 15 -8.68 15 -8 15 C-7.34 17.31 -6.68 19.62 -6 22 C-2.20296312 17.22308264 -0.93864289 13.13571108 -1 7 C-1.33 6.34 -1.66 5.68 -2 5 C-7.40960555 5.37741434 -9.45518503 6.98876201 -13 11 C-14.33333333 12.33333333 -15.66666667 13.66666667 -17 15 C-17.88529564 12.55723981 -18.1675728 11.41574014 -17.1796875 8.96484375 C-12.5557282 1.77970939 -8.72800163 -1.10831767 0 0 Z " fill="#000000" transform="translate(544,933)"/>
<path d="M0 0 C3.64776394 1.62122842 6.08406836 3.47065225 8 7 C8.5 9.9375 8.5 9.9375 8 13 C5.65423618 16.08300388 4.2332693 17.76509156 0.375 18.5 C-2 18 -2 18 -3.8125 16.9375 C-5.60842137 14.00731249 -5.18977574 11.3527047 -5 8 C-4.01 8 -3.02 8 -2 8 C-1.67 9.65 -1.34 11.3 -1 13 C0.32 12.67 1.64 12.34 3 12 C2.81171228 9.55519921 2.81171228 9.55519921 2 7 C-1.08127124 4.9271448 -3.59708078 4.77887055 -7.25 4.875 C-8.58804687 4.90207031 -8.58804687 4.90207031 -9.953125 4.9296875 C-10.62859375 4.95289063 -11.3040625 4.97609375 -12 5 C-12 4.01 -12 3.02 -12 2 C-8.2702915 -0.48647234 -4.32760492 -0.56034725 0 0 Z " fill="#000000" transform="translate(489,945)"/>
</svg>
