<svg id="Layer_1" data-name="Layer 1" xmlns="http://www.w3.org/2000/svg" viewBox="0 0 1998.63 954.41"><defs><style>.cls-1{fill:#fff;}.cls-2{fill:none;stroke:#000;stroke-linecap:round;stroke-linejoin:round;stroke-width:2px;}</style></defs><path class="cls-1" d="M1412.3-79.15l953,1.39-1.4,953-953-1.4Zm444.2,805.42a31.79,31.79,0,0,0,11.44-6.95c10.07-9.48,18.31-20.62,27.45-30.94,7.3-8.25,14.15-16.93,22.51-24.15,27.18-23.48,58.69-38.84,93.07-48.39,37.11-10.3,75.28-13.93,113.55-16.65a164.31,164.31,0,0,0,43.5-8.7c11.64-4.13,21.38-11.22,29.63-20.1,10.33-11.14,12-24.75,9.08-39.19-.34-1.69-1.14-3-3.05-3.29-3.14,1.71-3.25,1.71-3.25,5.83,0,15.12-7.66,25.53-20.3,32.65-10.6,6-22.15,9.38-34.12,11.34-19.35,3.18-39,1.76-58.41,3.28a20.87,20.87,0,0,1,3.75-1q25.67-4,51.18-8.85a185.51,185.51,0,0,0,30.59-8.18c2-.75,4.57-1.12,5.37-4.11-3.82-1.38-7.17,0-10.46.85-18.22,4.66-36.71,7.93-55.24,11-16.35,2.73-32.74,5.23-48.78,9.64-11.18,3.07-22,7.26-33.49,9.38a271.73,271.73,0,0,0-46.26,12.7c-27.26,10.24-52.89,23.44-75.45,42.11-.64.53-1.21,1.37-2.5.72-.38-2.63,2-3.19,3.53-4.2q36-23.84,73.6-45.15c12.91-7.36,25.67-14.89,39.83-19.61,30-10,60.7-15.66,92.41-15.86a149.69,149.69,0,0,0,46.7-7.77c17.33-5.78,31.94-15.4,42.13-31q6.27-9.6,12.53-19.19c.59-.91,1.71-1.77.67-3.1-2-.67-2.49,1-3.37,2.08-4.62,5.54-8.53,11.59-12.62,17.52a73.59,73.59,0,0,1-31.07,25.92c-17.57,7.84-36.26,10.65-55.27,11.44-9.82.4-19.67.38-29.45,1.33-15.23,1.48-30,5.31-44.86,8.88-20.45,4.92-39.21,13.59-57.37,24.23-25.85,15.16-51.6,30.45-76.64,46.93-.56.37-1.12,1-2.24.42.66-2.83-.37-6,1.26-8.87,5.57-.76,11.87.43,15.71-6.1-5.34-2.37-10.35,1.82-15.24-.68a4.26,4.26,0,0,1,.3-4.41c1.34-1.28,3.07-1.75,4.67-2.46,7.94-3.47,16.2-6.34,23.54-11a1108.36,1108.36,0,0,1,114.09-63.08c22.46-10.74,45.62-19.55,69.93-25.18,19.89-4.6,40-8.16,60-12.37,2.33-.49,4.67-.93,7-1.4a20.08,20.08,0,0,1-4.19,4.2c-17.35,14.39-36.44,24.52-59.12,28.56-51,9.1-100.25,23.79-145.59,49.7-7.27,4.16-14.51,8.35-21.36,13.19-1.34.94-3.39,1.54-2.47,4,2,1.34,3.4-.3,4.75-1.17,15.24-9.82,31.75-17.26,48.07-25,31.1-14.66,64.16-23.58,97.49-31.46,11.13-2.63,22.5-4.28,33.62-6.93,20.52-4.88,37.2-16.47,51.7-31.29a31.22,31.22,0,0,1,13.38-8.53c8.75-2.75,15.7-7.92,19.06-16.95a51.38,51.38,0,0,0,3.06-17.72c.12-18.95,1.43-37.86,2.13-56.79.3-8.21,1.07-16.41,2-24.58q2.57-23.43,4-46.95c.88-15.09,1.54-30.21,1.79-45.33q.9-53.76,3.95-107.42c.56-10.12,1.27-20.22,2-30.32,1.34-17.72,2.78-35.44,2.22-53.23a40,40,0,0,0-3.46-16.28c-3.05-6.35-9.56-8.95-16.24-6.79-5.48,1.77-9.22,5.8-12.63,10-11.44,14-24.23,26.74-37.48,39.07-22.09,20.56-46.23,38-73.39,51.29-20.22,9.93-41.21,17.91-62.12,26.14q-22.56,8.88-45.9,15.53c-2.34.66-4.67,1.16-4.52,4.28,1.14,2.77,3.47,2.41,5.66,2.29a267.26,267.26,0,0,0,34.09-4,344.7,344.7,0,0,0,62.89-18.49c20.82-8.2,41.15-17.34,59.49-30.39a378.24,378.24,0,0,0,29.52-23.73,411.63,411.63,0,0,0,36.18-35.44c2.22-2.48,4-5.56,7.62-7.7-.33,11.39-.83,22.07-1.67,32.75-2.22,28.24-4.16,56.51-5.41,84.82-1,21.86-1.36,43.74-2,65.62-.39,13.21-.61,26.43-1.18,39.64-.4,9.38-1.15,18.76-1.95,28.12-1.26,14.62-3.1,29.21-4,43.85-1.28,21.84-2,43.72-2.85,65.58-.39,9.94-2,12.06-11.62,14.86-.42.13-.86.22-1.28.33-14.93,3.92-30.09,6.82-45.26,9.5a421.86,421.86,0,0,0-118.62,39.78c-37.22,18.92-73.7,39.09-108.73,61.85a13.3,13.3,0,0,1-9.56,2.43,37.17,37.17,0,0,1,1.08-10c11-6,11-6,10.5-9.29-3.5-1.64-6.19,2.22-9.57,1.6-1.05-2.34-.16-4.47.08-6.62.27-2.45-.33-4.38-3.55-4.81-5,3-2.36,9.68-6.06,13.36-3.83,1-7.35-3.34-11.79-1,2.59,4.45,7.55,4.56,10.84,7.54-.81,2.61-.58,5.5-2.48,7.61-2.49,1-5-1.83-7.41.63.5,3.68,4.86,2.74,6.55,5.55-.63,4-1.41,8.15-4.85,11.56-2.38,2.36-4.93,5-4.89,8.67,1.22,1.65,3.34,1,4.27,2.46,0,1.28-1.48,1.47-1.73,3,1.31,2.2,1.11,4.64-.91,7.15-4.14-1.36-8.24-2.94-12.46-4.06-23.43-6.23-46.67-13.08-69.26-22-11.89-4.68-23.35-10.39-35.47-14.54a486.05,486.05,0,0,0-72.86-18.87c-26-4.61-51.54-11.75-77.62-16.24q-22.39-3.86-45-5.55c-2.34-.18-4.86-.55-5.53,2.68,1.39,2.55,1.36,2.62,2.75,3.21,16.23,6.82,32,14.8,49.31,18.86,3,.71,6,1.59,8.91,2.5a565.23,565.23,0,0,0,65.58,15.5c30.17,5.47,59.58,13.43,87.74,25.74,31.32,13.71,63.84,23.74,97.16,31.26,1.11.25,2.36.28,3.11,1.34.82,3.61-3.09,4.73-3.88,7.29.27,1.68,2.4.56,2.65,2.32-.45,3.24-1.46,6.65-1.44,10.21a4.32,4.32,0,0,1-1.14,2.8c-6.18,7.52-11.07,15.9-16.21,24.12-4.07,6.51-7.66,13.25-8.79,21C1855.45,720.86,1854.82,723.35,1856.5,726.27Zm34-196.3a6,6,0,0,1-4,.27c-32.28-5.14-63.83-13.46-95-22.94-34-10.33-67.77-21.48-102.09-30.76A377.44,377.44,0,0,0,1631,465.15c-19.69-2.11-39.46-3.55-59.16-5.62-8.93-.93-17.7-3-25.8-7.09-5.46-2.78-6.32-4.74-4.91-10.63.68-2.86,1.47-5.69,2.31-8.5,5-16.75,10.71-33.28,16.62-49.74,5.61-15.62,10.29-31.58,16.28-47.05,14.73-38.1,28.69-76.45,41.19-115.35,7.52-23.37,11-47.44,14-71.64.25-2,0-4-2.45-4.44-2.17-.36-3.12,1.28-3.7,3-6.2,18.69-13.45,37-20.32,55.42-11.33,30.43-24.17,60.26-35,90.88-6.23,17.58-13.87,34.65-19.5,52.45-5.15,16.26-11.18,32.19-16.73,48.3-5.07,14.72-10.28,29.43-13.51,44.69-2.64,12.5,2.16,22.65,13,29.31,6.72,4.15,14.11,6.5,21.68,8.39,17.06,4.26,34.61,4.54,52,6.14,14.19,1.3,28.37,2.62,42.39,5.18,37.54,6.84,73.75,18.67,110,30.26a1057.44,1057.44,0,0,0,112.79,29.9c5.14,1,10.43,1.37,15.74,3.07.46,6.27.56,12.64,5.51,17.54,6.15-3.7,8.49-9.68,11.17-14.89a4,4,0,0,1,2.86-.81c9.58.42,19.07-.71,28.55-1.77,8.82-1,17.43-2.72,25-7.66,1.29-.84,3.06-1.29,3-3.66a44.52,44.52,0,0,0-13.53-4.72c-8.68-1.67-17.52-1.52-26.31-2-4.06-.22-8.09-.74-11.88-1.1-.84-2,0-3.45.32-4.8a327.52,327.52,0,0,1,10.44-31.81,438.59,438.59,0,0,0,20.4-70.16c5.16-24.75,7.55-49.94,11.47-74.88,2.68-17.11,4.52-34.36,7-51.5,3.11-21.2,7.68-42.21,8.61-63.69.31-7.2-.3-14.4-3.6-21.06-3.16-6.38-8.32-9.61-15.44-9.88a35.74,35.74,0,0,0-13,1.95,97.58,97.58,0,0,1-39,5.18c-9.28-.68-18.26-3-27.19-5.35-23.87-6.42-47.53-13.45-69.15-25.86a386.25,386.25,0,0,0-41.38-20.64c-14.33-6.1-28.7-12.07-44.06-15.24-18.18-3.75-36.67-4.63-55.09-6.19-2.72-.24-4.55.81-4.5,3.69.86,2,2.46,2.33,4,2.74,6.68,1.75,13.36,3.47,20,5.26a385.45,385.45,0,0,1,67.26,24.9c17,8.13,32.9,18.2,49.53,27,25.58,13.47,53.19,21,81.07,27.79a111.57,111.57,0,0,0,63-2.76c1.76-.59,3.55-1.45,5.51-.78,1.38,1.7,1,3.68,1,5.54.38,10.79-1.21,21.43-3.1,32-6.74,37.6-10.65,75.6-16.46,113.33-3.15,20.46-5.66,41-10.78,61.13a474.08,474.08,0,0,1-16.25,51.68A353.39,353.39,0,0,0,1890.47,530ZM1854,683.64a24.27,24.27,0,0,0-10.43-13c-8.88-5.74-18-11.12-27.88-15-18-7.16-36-14.35-53.56-22.65a314.57,314.57,0,0,0-51.4-19.58c-36.52-10-73.39-18.83-108.5-33.55-14.81-6.21-29.84-11.64-42.13-22.43-8.45-7.42-15.41-15.68-17.4-27.26-1.87-10.85-4-21.64-6-32.47-.43-2.34-.59-4.78-3.62-5.17-2.27.47-2.74,2.07-2.81,4-.51,12.33-1.15,24.66-.63,37,.41,10,3.07,19.38,9.52,27.42,10,12.48,22.51,21.91,36.58,29.2,16.86,8.74,34.65,15.34,52.51,21.67,21.21,7.52,43.18,12.42,64.83,18.43,17.85,5,35.57,10.14,52.4,18.09,15.14,7.15,30.41,14,46,20.23,14.33,5.73,28.88,10.83,43.58,15.48C1841.17,685.94,1847.5,686.91,1854,683.64Zm-275-161.4c0,3.06,2.3,3.48,4.78,3.81,23.41,3.14,46.65,7.51,70.25,9.31,19.22,1.47,38,5.76,56.8,9.89a848.28,848.28,0,0,1,93.34,25.88,119.16,119.16,0,0,0,22.22,5.37c3.35.46,6.74.74,10-.44,5.44-2,6.49-5.74,2.85-10.19a23.06,23.06,0,0,0-7.25-5.62c-10.69-5.7-22-9.77-33.58-13.17-41.26-12.18-82.44-24.79-125.6-28.63-15.36-1.37-30.73-2.51-46.16-2.1-2.94.08-5.86.57-8.79.54a230.29,230.29,0,0,0-35.48,2.79A3.68,3.68,0,0,0,1579.07,522.24ZM1843.84,413a3.52,3.52,0,0,0-.83-3.12,24.27,24.27,0,0,0-12.61-7.69c-9.35-2.5-18.65-5.18-28.4-6-5.27-.44-10.55-.53-15.82-1-18.41-1.6-36.2-6.11-53.72-11.62-24.62-7.75-49.7-9.9-75.29-7.51-3.65.34-7.32.56-11,1-1.73.21-3,1.19-3,3.2.09,1.76,1.35,2.51,2.89,2.84.71.15,1.46.12,2.19.2,6.71.73,13.42,1.45,20.13,2.2,16.46,1.82,32.1,6.91,47.75,12,25.38,8.2,50.19,18.63,77.5,19.19,12.18.24,24.34,1.6,36.53,1.22C1835.2,417.76,1840.12,416.61,1843.84,413Zm-158-159.47a3.69,3.69,0,0,0,1.83,4.35c9.23,6,17.94,12.82,28.09,17.29,17.74,7.8,35.94,14.41,54,21.39a85.75,85.75,0,0,0,17.5,4.3c10.42,1.67,21,2.19,31.25,5.14,13.3,3.85,26.94,5.89,40.63,7.62,6.31.79,12.52.36,18.52-2.69a9.35,9.35,0,0,0-3-5.46,33.72,33.72,0,0,0-13.74-8.48c-6.92-2.45-13.83-5-20.89-7-13.4-3.84-26.87-7.69-40.93-8a105.51,105.51,0,0,1-33.62-6.09,157.62,157.62,0,0,0-28.85-7.81c-10.41-1.69-20.75-4.08-30.44-8.54-4.8-2.21-9.61-4.4-14.39-6.65C1689.7,251.94,1687.69,251.07,1685.8,253.57Zm38.13,95.6c.61,1.77,2,2.22,3.47,2.55q26.86,6.07,54.14,9.9c17,2.41,34,4.78,50.93,7.82,7.85,1.42,15.66,2.49,23.61,1.05,1.26-.23,2.7-.07,3.57-2.2a39.35,39.35,0,0,0-15.13-11.13,167.05,167.05,0,0,0-68.38-12.64l-41.82.84c-2,.05-4.11-.06-6.17,0C1725.72,345.53,1723.84,346.38,1723.93,349.17ZM2044,268.64c1.5,3.43,4,2.4,6.36,1.55a168,168,0,0,1,42.07-8.93c19.09-1.65,37.8-5.24,55.4-13.19,8.77-4,18.21-6.93,24.6-14.89,1.24-1.55,3.08-2.79,2.8-5.1-1-1.41-2.36-1.21-3.65-1.26a56.76,56.76,0,0,0-17.86,1.94c-19.91,5.63-39.79,11.36-59.82,16.54a179.15,179.15,0,0,0-46.29,18.9C2045.94,265.19,2044.21,266,2044,268.64Zm109.86,91.15c-4-3-10.93-4.56-16.39-4-15.78,1.61-31.47,3.7-47.07,6.66-23.55,4.47-45.58,12.38-65.12,26.54-1.35,1-2.63,1.91-2.55,4,1.48,3.38,4,2.28,6.48,1.19,10.13-4.4,20.48-8.12,31.38-10.14,11.84-2.19,23.87-3,35.82-4.34a208.11,208.11,0,0,0,43.33-9.64C2145.37,368.21,2150.32,365.2,2153.85,359.79Zm-521.42,55c-.14,2,1.26,2.48,2.4,3.05,6.83,3.4,13.63,6.87,20.54,10.12a86.35,86.35,0,0,0,30.11,7.66,247.15,247.15,0,0,1,41.21,6.57c18.64,4.76,36.81,11,55.25,16.45a403.2,403.2,0,0,1,55.11,20.83,223.49,223.49,0,0,0,36.4,13.13c1.77.48,3.63,1.19,5.18-.53-.67-2.2-2.58-2.57-4.1-3.28-9.06-4.21-18.47-7.55-27.74-11.24-13.9-5.53-27.11-12.71-41.43-17.25-17.91-5.67-35.72-11.66-53.73-17-21.38-6.31-42.88-12.08-65.44-12.87a82.37,82.37,0,0,1-31.44-7.77q-8.6-3.94-17.32-7.62C1635.94,414.44,1634.33,413.07,1632.43,414.78Zm285-147.76c-.68-2.35-2.42-2.62-3.87-3.12a242.88,242.88,0,0,0-25-6.75c-7.16-1.64-14.75-.85-21.68-3.36-11.08-4-22.48-4.37-33.91-3.42a51.33,51.33,0,0,1-24-3.79c-5.85-2.37-11.69-4.81-17.84-6.3-10.32-2.5-20.31-5.72-29.48-11.26-4.44-2.67-9.5-3.82-14.61-4.65a263.11,263.11,0,0,1-36.79-8.77,108.92,108.92,0,0,0-22.35-4.7c-1.42-.13-3-.83-3.84,1,.08,2,1.69,2.07,3.1,2.42,5.12,1.28,10.26,2.46,15.3,4.1,14,4.54,27.91,9.16,42.51,11.19,7.3,1,13.82,3.82,20.11,7.39a64.27,64.27,0,0,0,15.92,6.29c7.11,1.83,14.29,3.47,21,6.56a66.08,66.08,0,0,0,32.52,6.06c5.26-.35,10.57-.13,15.85-.07a19.14,19.14,0,0,1,4.78.59c8.64,2.33,17.26,4.48,26.25,5.3,9.94.9,19.44,4.41,29.27,6.11C1912.77,268.25,1915.12,269,1917.39,267Zm-24.31,81.51c-3.18-2.09-6.53-2.11-9.82-2.18a85.2,85.2,0,0,1-36.15-8.39,160.74,160.74,0,0,0-24.57-9.62c-15.89-4.77-32.2-8-48.06-12.87-4-1.25-8.34-1.56-12.57-2.06-11.94-1.41-24-2.09-35.82-4.14-14.45-2.5-28.87-5.21-43.3-7.79-1.75-.31-3.73-1.33-5,.88.33,2.26,2.15,2.35,3.65,2.71,5.84,1.41,11.68,2.86,17.57,4.07,11.49,2.37,22.79,5.7,34.52,6.84,8.61.84,17.18,2,25.8,2.72,11.68.93,22.61,4.95,33.85,7.69,18.56,4.51,37,9.23,54.3,17.7a72.58,72.58,0,0,0,39.77,7.12C1889.22,351,1891.37,351.26,1893.08,348.53ZM2043.4,246.06c.59.07.9.21,1.15.12a4.57,4.57,0,0,0,1.58-.73c9.1-7.72,20.33-10.42,31.55-12.56a97.68,97.68,0,0,0,27.19-9.77,156.85,156.85,0,0,1,14.71-7c12.94-5.17,26.57-8.37,39.4-13.87,7.56-3.23,15.55-5.24,23.42-7.6,2.18-.66,4.89-.91,5.82-4.39a16.44,16.44,0,0,0-8.34-.19c-3.15.68-6.3,1.42-9.38,2.35-14,4.26-27.46,10.25-41.53,14.44-8.12,2.43-16.24,5.24-23.62,9.56-10.26,6-21.27,9.63-32.85,12.14-10.22,2.21-20,5.87-27.82,13.37C2043.53,243.08,2041.89,243.93,2043.4,246.06ZM2028.05,314c1.55,2.33,3.53,1.28,5.27,1,4.92-.81,9.78-1.86,14.74-2.49,9.9-1.25,19.81-2.62,29-6.79,23.82-10.76,49.2-16.47,74.34-22.91,6.11-1.57,12.34-2.69,18.33-4.68,2.72-.9,5.94-1.4,7.37-4.68-3.24-1.05-4.27-1.05-7.85-.33-17.42,3.47-34.56,8-51.65,12.85-13.58,3.85-27.18,7.44-40,13.52a84.72,84.72,0,0,1-22.21,6.84c-7.66,1.32-15.28,2.89-22.78,5C2031,311.7,2029.09,311.68,2028.05,314Zm35.36,139.32c1.2,4.43,2.11,5,5.25,4,1.38-.46,2.67-1.26,4.07-1.64,16.55-4.46,31.78-12.08,47.1-19.49,3.81-1.84,5.45-5.25,4.15-8.13-1.44-3.22-5.14-4.29-9.08-2.33-12.46,6.21-25.37,11.55-37.3,18.82C2072.88,447.37,2068.19,450.31,2063.41,453.28Z" transform="translate(-366.68 79.15)"/><path d="M703.54,744.19c-1.67-2.92-1-5.41-.69-7.81,1.12-7.74,4.71-14.48,8.78-21,5.14-8.22,10-16.61,16.22-24.12a4.37,4.37,0,0,0,1.14-2.81c0-3.55,1-7,1.44-10.21-.26-1.76-2.38-.64-2.66-2.31.79-2.57,4.71-3.69,3.88-7.29-.74-1.07-2-1.09-3.11-1.34-33.32-7.52-65.83-17.56-97.16-31.26-28.16-12.32-57.57-20.28-87.74-25.74a567.16,567.16,0,0,1-65.57-15.51c-2.95-.9-5.91-1.79-8.91-2.49-17.29-4.07-33.08-12-49.31-18.87-1.4-.58-1.36-.65-2.75-3.2.66-3.23,3.19-2.86,5.52-2.69q22.63,1.68,45,5.55c26.08,4.5,51.59,11.63,77.62,16.24a486.49,486.49,0,0,1,72.87,18.87c12.11,4.15,23.57,9.86,35.46,14.54,22.59,8.89,45.83,15.74,69.27,22,4.21,1.13,8.31,2.7,12.45,4.06,2-2.51,2.22-4.95.92-7.15.24-1.48,1.71-1.68,1.73-3-.94-1.42-3-.81-4.28-2.45,0-3.64,2.51-6.32,4.89-8.68,3.44-3.41,4.22-7.52,4.85-11.55-1.68-2.81-6-1.88-6.55-5.55,2.39-2.46,4.92.35,7.42-.64,1.9-2.11,1.66-5,2.48-7.6-3.3-3-8.25-3.1-10.85-7.55,4.45-2.28,8,2,11.79,1.05,3.7-3.68,1.09-10.37,6.06-13.36,3.22.43,3.82,2.37,3.55,4.82-.24,2.15-1.12,4.28-.08,6.61,3.38.62,6.08-3.23,9.58-1.6.47,3.32.47,3.32-10.51,9.29a37.67,37.67,0,0,0-1.08,10,13.33,13.33,0,0,0,9.57-2.42c35-22.77,71.5-42.93,108.72-61.86a422,422,0,0,1,118.62-39.78c15.17-2.68,30.33-5.58,45.26-9.5.43-.11.86-.2,1.28-.32,9.64-2.8,11.23-4.93,11.63-14.87.87-21.86,1.56-43.73,2.84-65.57.87-14.65,2.7-29.23,4-43.86.8-9.36,1.55-18.73,2-28.11.57-13.21.79-26.43,1.18-39.65.63-21.87,1-43.76,2-65.62,1.25-28.3,3.2-56.57,5.41-84.82.84-10.68,1.35-21.35,1.67-32.75-3.66,2.14-5.4,5.22-7.62,7.7a412.9,412.9,0,0,1-36.17,35.44c-9.52,8.31-19.22,16.4-29.52,23.73-18.34,13.06-38.67,22.19-59.5,30.39a344.83,344.83,0,0,1-62.88,18.49,265.62,265.62,0,0,1-34.1,4c-2.18.12-4.52.49-5.66-2.28-.15-3.13,2.18-3.63,4.52-4.29q23.34-6.62,45.91-15.52c20.9-8.23,41.89-16.22,62.11-26.15,27.16-13.33,51.31-30.72,73.4-51.29,13.25-12.33,26-25,37.47-39.07,3.41-4.17,7.16-8.21,12.63-10,6.69-2.15,13.2.45,16.24,6.8,2.46,5.12,3.29,10.69,3.47,16.27.55,17.79-.89,35.51-2.23,53.23-.77,10.1-1.47,20.21-2,30.32q-3,53.67-4,107.42c-.25,15.12-.9,30.24-1.79,45.33q-1.38,23.52-4,46.95c-.89,8.17-1.67,16.37-2,24.58-.7,18.93-2,37.84-2.12,56.8a51.48,51.48,0,0,1-3.07,17.72c-3.36,9-10.3,14.2-19,16.94a31.25,31.25,0,0,0-13.38,8.53c-14.51,14.82-31.19,26.41-51.7,31.3-11.13,2.65-22.49,4.29-33.62,6.92-33.34,7.88-66.4,16.8-97.5,31.47-16.31,7.69-32.83,15.12-48.07,24.94-1.35.87-2.72,2.51-4.75,1.18-.92-2.43,1.13-3,2.47-4,6.85-4.83,14.09-9,21.36-13.18,45.34-25.92,94.6-40.61,145.6-49.7,22.67-4.05,41.77-14.17,59.12-28.57a20,20,0,0,0,4.18-4.19c-2.33.46-4.68.9-7,1.4-20,4.21-40.08,7.76-60,12.37-24.31,5.63-47.46,14.43-69.92,25.18A1106.61,1106.61,0,0,0,782.1,622.6c-7.33,4.64-15.6,7.5-23.53,11-1.61.7-3.34,1.17-4.68,2.45a4.29,4.29,0,0,0-.3,4.41c4.89,2.5,9.9-1.69,15.24.68-3.84,6.53-10.13,5.35-15.7,6.1-1.64,2.91-.61,6-1.27,8.88,1.13.55,1.68-.06,2.25-.43,25-16.47,50.78-31.76,76.64-46.92,18.16-10.65,36.91-19.31,57.36-24.24,14.83-3.57,29.63-7.4,44.86-8.87,9.78-.95,19.64-.93,29.46-1.34,19-.78,37.69-3.59,55.27-11.44a73.71,73.71,0,0,0,31.07-25.92c4.08-5.92,8-12,12.62-17.51.87-1,1.38-2.75,3.36-2.08,1,1.32-.08,2.18-.67,3.09q-6.24,9.62-12.53,19.19c-10.19,15.57-24.79,25.2-42.13,31a150,150,0,0,1-46.7,7.77c-31.71.19-62.42,5.86-92.41,15.85-14.16,4.72-26.92,12.25-39.83,19.62Q793,635.26,756.89,659c-1.53,1-3.91,1.57-3.53,4.2,1.29.65,1.85-.19,2.49-.71,22.56-18.68,48.19-31.87,75.45-42.12a271.81,271.81,0,0,1,46.27-12.69c11.45-2.12,22.31-6.31,33.48-9.39,16-4.4,32.43-6.9,48.78-9.64,18.53-3.09,37-6.37,55.24-11,3.3-.84,6.64-2.24,10.46-.86-.79,3-3.35,3.36-5.36,4.11a184.38,184.38,0,0,1-30.6,8.18q-25.52,4.8-51.18,8.86a21.07,21.07,0,0,0-3.75,1c19.46-1.52,39.07-.09,58.41-3.27,12-2,23.52-5.37,34.12-11.34,12.65-7.13,20.31-17.54,20.3-32.66,0-4.12.11-4.12,3.25-5.83,1.92.26,2.72,1.6,3.06,3.29,2.9,14.44,1.24,28.06-9.09,39.19-8.24,8.88-18,16-29.63,20.1a163.76,163.76,0,0,1-43.5,8.7c-38.27,2.73-76.43,6.35-113.55,16.66-34.37,9.54-65.89,24.9-93.07,48.39-8.36,7.22-15.21,15.89-22.51,24.14-9.14,10.33-17.37,21.47-27.45,30.94A31.65,31.65,0,0,1,703.54,744.19Z" transform="translate(-366.68 79.15)"/><path d="M737.51,547.89A353.44,353.44,0,0,1,750,508.48a478.32,478.32,0,0,0,16.25-51.67c5.11-20.13,7.63-40.67,10.78-61.14,5.81-37.73,9.72-75.73,16.46-113.32,1.89-10.54,3.48-21.18,3.09-32-.06-1.86.36-3.85-1-5.54-2-.68-3.75.19-5.51.78a111.57,111.57,0,0,1-63,2.75c-27.88-6.77-55.49-14.31-81.06-27.79-16.64-8.76-32.57-18.82-49.54-27a386.29,386.29,0,0,0-67.26-24.91c-6.67-1.78-13.35-3.5-20-5.25-1.57-.41-3.18-.78-4-2.75-.06-2.88,1.77-3.92,4.5-3.69,18.41,1.56,36.9,2.44,55.08,6.19,15.36,3.18,29.73,9.14,44.06,15.24a389.08,389.08,0,0,1,41.38,20.64c21.62,12.41,45.28,19.45,69.15,25.87,8.94,2.4,17.91,4.66,27.19,5.34a97.57,97.57,0,0,0,39.05-5.17,35.56,35.56,0,0,1,13-2c7.12.27,12.28,3.5,15.44,9.88,3.3,6.65,3.92,13.86,3.6,21.06-.92,21.48-5.5,42.49-8.6,63.69-2.51,17.14-4.35,34.38-7,51.49-3.92,24.95-6.3,50.14-11.47,74.88a436.24,436.24,0,0,1-20.4,70.16,331.17,331.17,0,0,0-10.44,31.81c-.37,1.36-1.15,2.75-.31,4.8,3.78.36,7.82.88,11.87,1.11,8.79.48,17.64.34,26.32,2a44.73,44.73,0,0,1,13.53,4.73c0,2.36-1.76,2.82-3,3.65-7.62,4.94-16.22,6.68-25,7.66-9.48,1.06-19,2.19-28.54,1.78a4.09,4.09,0,0,0-2.87.8c-2.68,5.21-5,11.19-11.17,14.89-4.94-4.89-5-11.26-5.5-17.53-5.32-1.7-10.6-2-15.74-3.08a1056.76,1056.76,0,0,1-112.79-29.89c-36.22-11.6-72.43-23.42-110-30.27-14-2.55-28.2-3.88-42.38-5.18-17.38-1.59-34.92-1.87-52-6.14-7.57-1.89-15-4.24-21.68-8.39-10.79-6.65-15.6-16.81-13-29.31,3.22-15.26,8.44-30,13.5-44.69,5.55-16.1,11.59-32,16.73-48.3,5.63-17.8,13.27-34.87,19.5-52.45,10.84-30.61,23.69-60.45,35-90.88,6.87-18.44,14.12-36.73,20.32-55.42.59-1.76,1.54-3.4,3.7-3.05,2.47.41,2.71,2.43,2.45,4.45-3.05,24.19-6.5,48.27-14,71.63-12.51,38.9-26.46,77.26-41.2,115.35-6,15.47-10.67,31.44-16.28,47.06-5.9,16.46-11.59,33-16.61,49.73-.85,2.81-1.64,5.65-2.32,8.5-1.4,5.9-.55,7.85,4.92,10.63,8.1,4.12,16.86,6.16,25.79,7.1,19.7,2.06,39.47,3.5,59.17,5.62a378.7,378.7,0,0,1,58.32,11.38c34.33,9.29,68.09,20.44,102.1,30.77,31.19,9.47,62.74,17.79,95,22.94A6.08,6.08,0,0,0,737.51,547.89Z" transform="translate(-366.68 79.15)"/><path d="M701.07,701.56c-6.53,3.27-12.86,2.3-19,.35-14.7-4.65-29.25-9.75-43.58-15.48-15.56-6.22-30.83-13.07-46-20.22-16.83-8-34.55-13.14-52.4-18.1-21.64-6-43.62-10.91-64.83-18.43-17.86-6.33-35.65-12.93-52.5-21.66-14.08-7.3-26.56-16.73-36.59-29.2-6.45-8-9.1-17.44-9.52-27.43-.52-12.32.13-24.66.63-37,.08-1.89.54-3.49,2.82-4,3,.38,3.18,2.82,3.62,5.16,2,10.83,4.16,21.63,6,32.48,2,11.57,8.95,19.84,17.4,27.25,12.3,10.8,27.32,16.22,42.13,22.43,35.12,14.73,72,23.55,108.51,33.56a314,314,0,0,1,51.4,19.57c17.54,8.31,35.53,15.49,53.55,22.65,9.87,3.92,19,9.3,27.89,15A24.36,24.36,0,0,1,701.07,701.56Z" transform="translate(-366.68 79.15)"/><path d="M426.11,540.17a3.65,3.65,0,0,1,3.41-2.56,229.19,229.19,0,0,1,35.49-2.8c2.92,0,5.85-.45,8.78-.53,15.43-.41,30.8.73,46.16,2.09,43.17,3.84,84.35,16.45,125.61,28.63,11.53,3.4,22.89,7.47,33.57,13.17a23,23,0,0,1,7.25,5.63C690,588.24,689,592,683.53,594c-3.28,1.18-6.68.9-10,.43a117.79,117.79,0,0,1-22.22-5.37,850.5,850.5,0,0,0-93.34-25.88c-18.77-4.13-37.58-8.42-56.79-9.89-23.61-1.8-46.85-6.17-70.26-9.31C428.42,543.64,426.17,543.22,426.11,540.17Z" transform="translate(-366.68 79.15)"/><path d="M690.89,431c-3.73,3.57-8.64,4.72-13.61,4.88-12.19.38-24.35-1-36.52-1.23-27.32-.55-52.12-11-77.5-19.18-15.66-5.06-31.3-10.14-47.76-12l-20.13-2.19a19.8,19.8,0,0,1-2.19-.21c-1.54-.33-2.8-1.07-2.88-2.84-.1-2,1.22-3,3-3.19,3.64-.44,7.3-.65,10.95-1,25.59-2.39,50.67-.24,75.3,7.51,17.52,5.52,35.31,10,53.71,11.63,5.27.46,10.55.54,15.82,1,9.75.81,19.05,3.5,28.4,6a24.22,24.22,0,0,1,12.61,7.7A3.53,3.53,0,0,1,690.89,431Z" transform="translate(-366.68 79.15)"/><path d="M532.85,271.5c1.88-2.5,3.89-1.64,6-.66,4.78,2.25,9.59,4.44,14.39,6.65,9.69,4.46,20,6.86,30.44,8.54a158.42,158.42,0,0,1,28.85,7.81,105,105,0,0,0,33.62,6.09c14.07.36,27.53,4.2,40.94,8,7,2,14,4.54,20.88,7a33.85,33.85,0,0,1,13.74,8.49,9.32,9.32,0,0,1,3,5.46c-6,3.05-12.21,3.47-18.52,2.68-13.69-1.72-27.32-3.77-40.63-7.62-10.2-2.95-20.82-3.47-31.25-5.13a85.93,85.93,0,0,1-17.5-4.31c-18.06-7-36.27-13.59-54-21.39-10.15-4.46-18.86-11.3-28.09-17.28A3.68,3.68,0,0,1,532.85,271.5Z" transform="translate(-366.68 79.15)"/><path d="M571,367.09c-.09-2.79,1.8-3.64,4.23-3.76,2-.11,4.11,0,6.17,0q20.91-.41,41.82-.85a167.17,167.17,0,0,1,68.37,12.64,39.46,39.46,0,0,1,15.14,11.13c-.87,2.13-2.31,2-3.57,2.2-8,1.45-15.76.37-23.62-1-16.9-3.05-33.92-5.42-50.93-7.82q-27.26-3.85-54.14-9.9C573,369.31,571.59,368.87,571,367.09Z" transform="translate(-366.68 79.15)"/><path d="M891,286.57c.21-2.62,1.94-3.46,3.61-4.44a179.25,179.25,0,0,1,46.28-18.91c20-5.18,39.91-10.91,59.82-16.54a57.39,57.39,0,0,1,17.86-1.94c1.29,0,2.69-.15,3.65,1.26.28,2.31-1.55,3.55-2.8,5.1-6.38,8-15.82,10.93-24.6,14.89-17.6,8-36.3,11.54-55.39,13.19a167.88,167.88,0,0,0-42.07,8.93C895,289,892.54,290,891,286.57Z" transform="translate(-366.68 79.15)"/><path d="M1000.89,377.72c-3.53,5.4-8.48,8.41-14.12,10.29a208.63,208.63,0,0,1-43.33,9.65c-12,1.31-24,2.14-35.82,4.33-10.9,2-21.25,5.74-31.38,10.14-2.53,1.1-5,2.2-6.48-1.19-.08-2.12,1.2-3.05,2.55-4,19.55-14.16,41.57-22.07,65.12-26.54,15.61-3,31.3-5.05,47.07-6.66C990,373.16,996.91,374.75,1000.89,377.72Z" transform="translate(-366.68 79.15)"/><path d="M479.47,432.7c1.9-1.71,3.51-.34,5,.29q8.73,3.67,17.33,7.62a82.09,82.09,0,0,0,31.44,7.76c22.55.8,44,6.57,65.44,12.87,18,5.31,35.82,11.31,53.72,17,14.32,4.53,27.54,11.71,41.44,17.25,9.27,3.69,18.68,7,27.73,11.24,1.52.71,3.43,1.08,4.1,3.28-1.55,1.72-3.41,1-5.18.53a225.73,225.73,0,0,1-36.4-13.13A401.9,401.9,0,0,0,629,476.56c-18.43-5.42-36.61-11.69-55.25-16.46a247,247,0,0,0-41.21-6.56,86.4,86.4,0,0,1-30.11-7.66c-6.91-3.25-13.71-6.72-20.54-10.13C480.74,435.18,479.34,434.74,479.47,432.7Z" transform="translate(-366.68 79.15)"/><path d="M764.43,285c-2.26,2-4.61,1.23-6.83.84-9.84-1.69-19.34-5.2-29.28-6.11-9-.82-17.61-3-26.24-5.29a19.27,19.27,0,0,0-4.78-.6c-5.29-.06-10.59-.28-15.86.07a66,66,0,0,1-32.52-6.06c-6.69-3.08-13.88-4.73-21-6.55A65,65,0,0,1,612,255c-6.29-3.57-12.82-6.38-20.11-7.39-14.61-2-28.57-6.65-42.52-11.2-5-1.64-10.17-2.82-15.3-4.09-1.4-.36-3-.39-3.09-2.42.88-1.86,2.41-1.17,3.83-1a109.14,109.14,0,0,1,22.36,4.69A261.05,261.05,0,0,0,594,242.29c5.1.83,10.17,2,14.6,4.66,9.18,5.53,19.17,8.76,29.48,11.26,6.15,1.49,12,3.92,17.84,6.29a51.35,51.35,0,0,0,24,3.79c11.43-1,22.84-.6,33.91,3.42,6.93,2.52,14.52,1.73,21.68,3.36a243.06,243.06,0,0,1,25.06,6.75C762,282.32,763.75,282.6,764.43,285Z" transform="translate(-366.68 79.15)"/><path d="M740.12,366.45c-1.7,2.73-3.86,2.48-5.87,2.68A72.53,72.53,0,0,1,694.49,362c-17.31-8.47-35.75-13.18-54.3-17.7-11.25-2.74-22.18-6.76-33.86-7.68-8.61-.69-17.19-1.89-25.79-2.73-11.74-1.14-23-4.47-34.52-6.83-5.89-1.21-11.73-2.67-17.58-4.08-1.5-.36-3.31-.44-3.64-2.71,1.3-2.21,3.28-1.19,5-.87,14.44,2.58,28.85,5.28,43.3,7.78C585,329.25,597,329.92,609,331.33c4.23.51,8.53.81,12.58,2.06,15.85,4.9,32.16,8.1,48.06,12.87a161.77,161.77,0,0,1,24.57,9.62,85.12,85.12,0,0,0,36.14,8.39C733.6,364.34,737,364.36,740.12,366.45Z" transform="translate(-366.68 79.15)"/><path d="M890.45,264c-1.52-2.13.12-3,1.27-4.08,7.81-7.51,17.6-11.16,27.83-13.38,11.57-2.5,22.58-6.13,32.84-12.13,7.38-4.32,15.5-7.14,23.62-9.56,14.08-4.2,27.5-10.19,41.53-14.45,3.08-.93,6.23-1.67,9.38-2.35a16.44,16.44,0,0,1,8.34.2c-.92,3.47-3.63,3.72-5.82,4.38-7.86,2.36-15.85,4.37-23.42,7.61-12.83,5.49-26.45,8.7-39.4,13.86a156.85,156.85,0,0,0-14.71,7,97.27,97.27,0,0,1-27.19,9.78c-11.22,2.14-22.44,4.83-31.55,12.56a4.76,4.76,0,0,1-1.58.73C891.35,264.19,891,264.06,890.45,264Z" transform="translate(-366.68 79.15)"/><path d="M875.09,331.88c1-2.28,3-2.25,4.62-2.7,7.5-2.08,15.12-3.65,22.78-5a84.77,84.77,0,0,0,22.22-6.83c12.78-6.09,26.39-9.68,40-13.52,17.09-4.85,34.23-9.38,51.66-12.86,3.57-.71,4.6-.71,7.84.33-1.43,3.29-4.64,3.78-7.37,4.69-6,2-12.22,3.11-18.33,4.67-25.14,6.45-50.52,12.16-74.34,22.92-9.22,4.17-19.13,5.53-29,6.78-5,.63-9.82,1.69-14.73,2.49C878.62,333.17,876.65,334.22,875.09,331.88Z" transform="translate(-366.68 79.15)"/><path d="M910.45,471.2c4.78-3,9.47-5.91,14.2-8.79,11.93-7.27,24.83-12.61,37.3-18.82,3.93-2,7.63-.88,9.08,2.33,1.29,2.89-.34,6.29-4.15,8.14-15.32,7.4-30.56,15-47.1,19.49-1.41.37-2.69,1.17-4.08,1.64C912.57,476.24,911.65,475.63,910.45,471.2Z" transform="translate(-366.68 79.15)"/><path class="cls-2" d="M1064.37,517c-7.72,10.77-14,22.55-23.36,32.2-10.48,10.8-23.46,16.94-37.57,21a171.53,171.53,0,0,1-43.19,6.22c-8.38.21-16.81.18-25.12.95a233.24,233.24,0,0,0-34,6c-10.81,2.64-21.78,4.84-32.18,8.81a210.07,210.07,0,0,0-34,16.52c-17.14,10.38-34.8,19.88-51.62,30.81-8.92,5.8-18.17,11.08-26.89,17.19a21.6,21.6,0,0,1-8.81,4" transform="translate(-366.68 79.15)"/><path class="cls-2" d="M1037,519.2c-1.17,4.27-5,6.26-8,8.7-10.89,8.9-22.18,17.26-35.64,22.14a130.89,130.89,0,0,1-23.84,6c-15.54,2.51-30.66,6.66-45.86,10.56a512.09,512.09,0,0,0-56.88,18.49c-15.14,5.83-29.15,14-43.65,21.15a160.29,160.29,0,0,0-21.65,13.14" transform="translate(-366.68 79.15)"/><path class="cls-2" d="M725.37,509.93c-14.48-4.86-28.86-9.94-42.74-16.37a393.07,393.07,0,0,0-55.92-20.5c-13.15-3.82-26-8.76-39.28-12.17-12.08-3.11-24-6.76-36.54-8.18-7.94-.9-15.9-1.49-23.83-2.46-11.12-1.35-21.3-5.15-31.28-9.87-5.11-2.42-10.27-4.73-15.41-7.09" transform="translate(-366.68 79.15)"/><path class="cls-2" d="M533.13,230.12c14.3,2.38,27.83,7.65,41.85,11.11,6.57,1.62,13.17,2.93,19.84,4,4.8.74,9.65,2,13.57,4.57,8.61,5.6,18.14,8.45,27.87,10.86,7.46,1.84,14.4,5,21.57,7.59A52.84,52.84,0,0,0,678.11,271c11.7-.41,23.57-1.29,34.82,3.42,5.21,2.18,10.89,1.75,16.33,2.52,8.4,1.19,16.43,3.73,24.67,5.45,3.52.73,6.88,2.28,10.56,2.26" transform="translate(-366.68 79.15)"/><path class="cls-2" d="M739.69,367.1c-6-1.37-12-.1-18.1-.67-9.3-.87-18.21-2.9-26.35-7-17.51-8.87-36.36-13.28-55.14-18.06-7-1.76-13.75-4.1-20.74-5.64a137.88,137.88,0,0,0-16.73-2.29c-13.13-1.24-26.32-2.24-39.2-5.05-10.43-2.27-20.89-4.31-31.33-6.52-2.47-.52-4.88-1.48-7.48-1.36" transform="translate(-366.68 79.15)"/><path class="cls-2" d="M500.26,398.05H490.12" transform="translate(-366.68 79.15)"/><path class="cls-2" d="M1022.38,292.12c-16.87,4.38-34.07,7.41-50.73,12.65-7.54,2.38-15.34,3.94-22.9,6.25-10.17,3.11-19.83,7.57-29.59,11.76-5.88,2.52-12.27,3.3-18.51,4.38-8,1.39-16,2.42-23.81,4.87" transform="translate(-366.68 79.15)"/><path class="cls-2" d="M1035.29,209.25a87.77,87.77,0,0,0-25.09,6.48c-13.92,5.65-28.39,9.66-42.42,15A111.06,111.06,0,0,0,952,237.84c-9.67,5.49-20,8.83-30.88,11s-21.21,5.73-29.58,13.51" transform="translate(-366.68 79.15)"/><path class="cls-2" d="M1023.73,577.82c-9,2.34-17.85,5.1-26.92,6.92-15.8,3.17-31.62,6.25-47.6,8.45-5.31.73-10.55,1.94-15.87,2.68a7.35,7.35,0,0,0-5.75,4.3" transform="translate(-366.68 79.15)"/><path class="cls-2" d="M768.38,641.38c-5.53,2.29-11.2,3.56-17.19,2.18" transform="translate(-366.68 79.15)"/><path class="cls-2" d="M767.57,593.32c-2,.16-3.61,1.23-5.31,2.16-2.72,1.49-5.6,2.52-8.8,1.79" transform="translate(-366.68 79.15)"/><path class="cls-2" d="M750.81,599.91c-4.44-1.54-9-2.59-13.22-4.87" transform="translate(-366.68 79.15)"/><path class="cls-2" d="M749,613.57l-12.34-2.66" transform="translate(-366.68 79.15)"/><path class="cls-2" d="M902.43,860.46" transform="translate(-366.68 79.15)"/><path class="cls-2" d="M904.61,854.32" transform="translate(-366.68 79.15)"/></svg>